<svg width="41" height="41" viewBox="0 0 41 41" fill="none" xmlns="http://www.w3.org/2000/svg">
<g clip-path="url(#clip0_2163_4074)">
<path d="M40.14 0H0V40.14H40.14V0Z" fill="#F7F7F7"/>
<path opacity="0.35" d="M10.6842 15.3513C10.918 17.092 11.8331 21.0924 15.4408 24.7001C19.0484 28.3077 23.0478 29.2228 24.7895 29.4566C26.0511 29.7293 27.4189 29.3829 28.3993 28.4025C29.9325 26.8693 24.3788 21.3156 22.8456 22.8489L21.8674 23.8271L16.3137 18.2735L17.2909 17.2952C18.8241 15.762 13.2705 10.2083 11.7373 11.7416C10.7569 12.7219 10.4105 14.0898 10.6842 15.3513Z" fill="#30BE9F"/>
<path d="M11.7402 11.7367L17.2928 17.2893C18.8229 15.7551 18.8229 13.272 17.2897 11.7388C15.7586 10.2077 13.2745 10.2067 11.7402 11.7367Z" fill="#30BE9F"/>
<path d="M22.8477 22.8461L28.4003 28.3987C29.9303 26.8655 29.9303 24.3814 28.3971 22.8482C26.8649 21.3171 24.382 21.316 22.8477 22.8461Z" fill="#30BE9F"/>
</g>
<defs>
<clipPath id="clip0_2163_4074">
<rect width="40.14" height="40.14" fill="white"/>
</clipPath>
</defs>
</svg>
