<svg width="17" height="17" viewBox="0 0 17 17" fill="none" xmlns="http://www.w3.org/2000/svg">
<g clip-path="url(#clip0_2163_3783)">
<path d="M13.4583 0.710938H3.54167C2.6027 0.712062 1.70252 1.08556 1.03857 1.74951C0.374625 2.41346 0.00112473 3.31364 0 4.2526L0 12.7526C0.00112473 13.6916 0.374625 14.5918 1.03857 15.2557C1.70252 15.9196 2.6027 16.2931 3.54167 16.2943H13.4583C14.3973 16.2931 15.2975 15.9196 15.9614 15.2557C16.6254 14.5918 16.9989 13.6916 17 12.7526V4.2526C16.9989 3.31364 16.6254 2.41346 15.9614 1.74951C15.2975 1.08556 14.3973 0.712062 13.4583 0.710938ZM3.54167 2.1276H13.4583C13.8825 2.12844 14.2967 2.25618 14.6476 2.49438C14.9985 2.73259 15.2701 3.07036 15.4275 3.46423L10.0031 8.88935C9.60389 9.28695 9.06342 9.51019 8.5 9.51019C7.93658 9.51019 7.39611 9.28695 6.99692 8.88935L1.5725 3.46423C1.72986 3.07036 2.00148 2.73259 2.35241 2.49438C2.70334 2.25618 3.11753 2.12844 3.54167 2.1276ZM13.4583 14.8776H3.54167C2.97808 14.8776 2.43758 14.6537 2.03906 14.2552C1.64055 13.8567 1.41667 13.3162 1.41667 12.7526V5.3151L5.99533 9.89094C6.66019 10.5541 7.56093 10.9265 8.5 10.9265C9.43907 10.9265 10.3398 10.5541 11.0047 9.89094L15.5833 5.3151V12.7526C15.5833 13.3162 15.3595 13.8567 14.9609 14.2552C14.5624 14.6537 14.0219 14.8776 13.4583 14.8776Z" fill="#30BE9F"/>
</g>
<defs>
<clipPath id="clip0_2163_3783">
<rect width="17" height="17" fill="white"/>
</clipPath>
</defs>
</svg>
