<svg width="496" height="355" viewBox="0 0 496 355" fill="none" xmlns="http://www.w3.org/2000/svg">
<path d="M309.609 308.632C299.052 308.568 288.494 308.569 277.937 308.635L198.724 308.701C182.815 308.741 166.908 308.909 151.002 309.207C143.84 309.332 136.483 309.048 129.354 309.624L129.101 309.676C126.518 310.221 124.041 311.358 121.499 312.092C114.719 314.051 107.663 313.746 100.966 311.666C99.6411 311.254 97.3478 311 96.2513 310.368C90.9418 310.319 85.6875 310.413 80.3849 310.665C76.58 310.847 72.6021 311.279 68.8041 311.086C63.6952 311.52 52.5468 311.342 48.4687 312.612L48.3891 312.897C48.5932 313.001 48.7973 313.093 49.0152 313.17C52.4153 314.367 59.0359 314.118 62.8269 314.306C78.6588 315.092 94.4526 315.416 110.298 315.701C173.714 316.788 237.135 317.14 300.559 316.757C340.064 316.821 379.556 316.12 419.034 314.656C423.897 314.467 445.273 314.192 448.568 312.693L448.594 312.393C446.009 310.982 435.472 311.166 431.885 311.014C422.837 310.317 413.61 310.327 404.532 310.064C386.249 309.457 367.96 309.222 349.667 309.357C338.345 314.473 329.212 316.222 317.208 312.052C314.683 311.174 312.304 309.334 309.756 308.667C309.708 308.655 309.658 308.644 309.609 308.632Z" fill="#0F1632"/>
<rect x="298" y="147" width="165" height="54" rx="27" fill="#30BE9F"/>
<path d="M223.501 54.8596C218.915 54.8464 214.324 54.8824 209.739 54.8076C213.977 59.6475 219.531 61.303 225.783 61.7192C226.967 61.7988 228.152 61.8523 229.338 61.8798C229.527 60.7059 229.673 59.5291 229.817 58.3489C230.029 57.5399 230.235 56.8236 230.199 55.9771C229.829 56.011 229.605 56.0176 229.259 55.8611C227.34 54.9973 225.567 54.9118 223.501 54.8596Z" fill="#D2210B"/>
<path d="M192.795 98.1094C190.611 98.3669 188.932 99.0244 187.526 100.785C185.649 103.136 185.007 106.41 185.389 109.348C185.58 110.824 186.061 112.221 186.714 113.554C182.604 116.592 178.957 120.689 175.228 124.204C172.312 126.953 168.866 129.646 166.247 132.659L166.457 132.898L168.318 133.456C170.86 131.178 173.332 128.809 175.861 126.513C179.621 122.564 183.703 118.801 187.689 115.078C188.837 116.379 190.154 117.609 191.744 118.342C193.502 119.152 195.066 119.107 196.844 118.474C195.152 117.534 193.971 117.27 192.57 115.786C190.088 113.157 188.811 109.322 188.971 105.728C189.118 102.448 190.407 100.256 192.795 98.1094Z" fill="url(#paint0_linear_2307_5840)"/>
<path d="M196.845 118.473C197.299 118.231 197.77 117.981 198.173 117.659C200.066 116.145 200.915 113.656 201.134 111.315C201.469 107.741 200.42 103.763 198.097 100.99C196.672 99.2885 195.009 98.3153 192.797 98.1094C190.409 100.255 189.119 102.448 188.973 105.728C188.813 109.322 190.089 113.157 192.572 115.786C193.973 117.27 195.154 117.534 196.845 118.473Z" fill="#50528F"/>
<path d="M256.547 38.414C250.16 36.5667 243.715 36.7121 237.807 39.9965C233.042 42.6452 229.505 46.3371 228 51.6644C227.705 52.7082 227.499 53.7835 227.288 54.847C226.032 54.8433 224.754 54.7923 223.501 54.8595C225.567 54.9118 227.34 54.9973 229.258 55.861C229.605 56.0175 229.829 56.0109 230.199 55.977L230.49 55.4879C232.816 55.3172 235.622 56.1643 237.972 56.4129C238.812 52.5511 240.038 48.7841 242.482 45.6167C246.077 40.9589 250.887 39.1092 256.547 38.414Z" fill="#F8B52F"/>
<path d="M270.52 60.2713C270.629 56.2014 269.965 52.4119 268.146 48.7405C265.845 44.0938 261.482 40.0519 256.544 38.4141C250.884 39.1093 246.074 40.959 242.48 45.6167C240.035 48.7841 238.809 52.5511 237.97 56.413C240.918 56.5522 243.872 56.628 246.818 56.8253C251.127 57.1836 255.474 57.9847 259.757 58.5965C262.224 58.9489 264.998 59.078 267.384 59.7227C268.412 60.0061 269.465 60.128 270.52 60.2713Z" fill="#F34231"/>
<path d="M175.862 126.514C173.332 128.809 170.861 131.179 168.318 133.457C169.533 134.799 170.778 136.112 172.054 137.396C172.897 138.386 174.259 139.673 174.681 140.92L174.138 141.375C176.01 144.453 179.587 146.163 182.205 148.544L182.628 147.51C186.64 145.487 191.347 146.125 195.626 145.27C194.429 142.933 193.946 139.99 192.581 137.815C192.435 137.236 192.334 136.851 192.484 136.265C195.129 134.859 198.398 134.123 201.236 133.17C204.656 132.007 208.023 130.705 211.336 129.265C208.784 127.732 186.804 127.31 181.914 127.043C180.175 126.948 177.417 127.206 175.862 126.514Z" fill="#E3EFF3"/>
<path d="M192.58 137.815C191.993 138.551 189.685 138.687 188.665 138.801C181.268 139.624 178.276 137.413 172.053 137.396C172.896 138.387 174.257 139.673 174.68 140.92L174.136 141.375C176.009 144.454 179.585 146.163 182.204 148.544L182.627 147.51C186.639 145.487 191.346 146.126 195.625 145.27C194.428 142.933 193.945 139.99 192.58 137.815Z" fill="#E38451"/>
<path d="M182.625 147.51C182.581 146.832 182.506 146.137 182.378 145.47C182.079 143.898 181.036 142.253 179.684 141.395C178.082 140.378 176.426 140.5 174.678 140.92L174.134 141.375C176.007 144.454 179.583 146.163 182.202 148.544L182.625 147.51Z" fill="#50528F"/>
<path d="M242.313 99.6523C233.06 113.842 227.425 122.112 211.332 129.265C208.019 130.705 204.652 132.007 201.232 133.17C198.394 134.123 195.125 134.859 192.48 136.265C192.33 136.851 192.431 137.236 192.577 137.815C193.942 139.989 194.425 142.933 195.622 145.27C198.084 145.17 200.897 145.532 203.279 146.213C203.409 145.814 203.634 145.098 203.982 144.839C204.963 144.108 211.075 142.946 212.76 142.449C223.11 139.4 234.232 135.649 242.789 128.889C241.786 121.599 239.469 107.154 242.758 100.383L242.313 99.6523Z" fill="#B30909"/>
<path d="M131.975 74.3191C130.844 74.2336 129.73 74.1824 128.599 74.3014C128.33 74.3282 128.06 74.3617 127.79 74.4018C127.523 74.442 127.256 74.489 126.991 74.5427C126.723 74.5963 126.458 74.6566 126.195 74.7238C125.933 74.7907 125.672 74.8642 125.414 74.9443C125.153 75.0246 124.896 75.1113 124.642 75.2043C124.386 75.2975 124.134 75.397 123.885 75.5027C123.633 75.6084 123.386 75.7205 123.141 75.8389C122.897 75.9571 122.656 76.0813 122.418 76.2117C122.181 76.3421 121.946 76.4786 121.716 76.621C121.483 76.7631 121.255 76.9111 121.031 77.0648C120.807 77.2185 120.588 77.3778 120.374 77.5426C120.157 77.7071 119.945 77.8771 119.737 78.0525C119.53 78.2279 119.327 78.4085 119.129 78.5943C118.93 78.7799 118.738 78.9703 118.551 79.1656C118.362 79.3611 118.177 79.561 117.997 79.7655C117.82 79.9702 117.647 80.1792 117.479 80.3925C114.583 84.0542 113.65 88.4447 114.21 93.0239C114.905 98.7271 125.676 115.613 129.692 118.719L129.858 119.178L130.166 119.313C131.782 117.967 133.082 115.797 134.32 114.105C138.855 107.904 144.639 100.446 146.15 92.777C146.199 92.5305 146.241 92.283 146.278 92.0344C146.317 91.7859 146.349 91.5365 146.372 91.2863C146.397 91.0361 146.415 90.7855 146.427 90.5344C146.439 90.2833 146.443 90.0319 146.441 89.7804C146.441 89.529 146.434 89.2779 146.42 89.027C146.406 88.7759 146.385 88.5254 146.358 88.2754C146.332 88.0255 146.3 87.7763 146.261 87.528C146.222 87.2797 146.177 87.0324 146.126 86.7864C146.073 86.5404 146.015 86.2958 145.953 86.0528C145.888 85.8098 145.818 85.5685 145.742 85.3289C145.666 85.0893 145.584 84.8519 145.496 84.6164C145.407 84.3813 145.312 84.1483 145.213 83.9178C145.114 83.687 145.008 83.4591 144.895 83.2341C144.784 83.0088 144.667 82.7866 144.545 82.5673C144.423 82.3478 144.295 82.1317 144.161 81.9188C144.027 81.7061 143.888 81.4969 143.743 81.2912C140.924 77.1925 136.735 75.215 131.975 74.3191Z" fill="#F34231"/>
<path d="M132.244 82.0777C129.902 81.7208 127.664 81.9971 125.671 83.3524C125.556 83.4306 125.443 83.5117 125.332 83.5958C125.222 83.6798 125.113 83.7666 125.007 83.8561C124.901 83.9454 124.798 84.0374 124.696 84.132C124.595 84.2269 124.495 84.324 124.399 84.4235C124.302 84.5232 124.207 84.6252 124.115 84.7295C124.023 84.8339 123.933 84.9405 123.845 85.0494C123.76 85.1581 123.677 85.269 123.596 85.3821C123.515 85.4952 123.437 85.6101 123.361 85.727C123.285 85.8439 123.212 85.9627 123.143 86.0832C123.074 86.2039 123.008 86.3261 122.946 86.4498C122.881 86.5738 122.821 86.6992 122.766 86.8261C122.708 86.9528 122.654 87.0811 122.603 87.2107C122.553 87.3402 122.505 87.471 122.462 87.603C122.418 87.735 122.377 87.8679 122.34 88.0018C122.304 88.136 122.27 88.2707 122.24 88.4062C122.208 88.5419 122.18 88.6783 122.157 88.8154C122.134 88.9525 122.113 89.0901 122.095 89.2281C122.079 89.3663 122.066 89.5048 122.057 89.6435C122.048 89.7822 122.041 89.9211 122.036 90.0603C122.034 90.1993 122.034 90.3383 122.036 90.4775C122.041 90.6166 122.049 90.7556 122.06 90.8943C122.07 91.0331 122.083 91.1714 122.102 91.3094C122.118 91.4474 122.139 91.5848 122.164 91.7217C122.187 91.8588 122.215 91.9952 122.247 92.131C122.277 92.2664 122.31 92.4012 122.347 92.5353C122.384 92.6692 122.426 92.8022 122.472 92.9342C122.516 93.0662 122.563 93.1969 122.614 93.3264C122.662 93.4561 122.715 93.5844 122.773 93.7114C122.831 93.8383 122.89 93.9638 122.953 94.0877C123.015 94.2119 123.081 94.3343 123.15 94.4551C123.219 94.5758 123.292 94.6948 123.368 94.812C123.442 94.9292 123.519 95.0445 123.599 95.1579C124.904 96.991 126.837 98.0712 129.02 98.4613C130.161 99.0083 132.264 98.723 133.42 98.2889C135.346 97.5657 136.948 95.8053 137.785 93.9558C137.842 93.8252 137.898 93.6933 137.951 93.5602C138.004 93.4267 138.052 93.2922 138.096 93.1565C138.142 93.0208 138.185 92.8839 138.224 92.7459C138.263 92.6081 138.299 92.4694 138.331 92.3298C138.361 92.1904 138.389 92.0501 138.414 91.9092C138.44 91.7681 138.462 91.6266 138.48 91.4843C138.498 91.3422 138.512 91.1998 138.522 91.0572C138.533 90.9143 138.54 90.7713 138.542 90.6282C138.547 90.4851 138.548 90.3419 138.546 90.1986C138.541 90.0555 138.534 89.9125 138.525 89.7696C138.513 89.627 138.498 89.4846 138.48 89.3425C138.464 89.2003 138.443 89.0587 138.418 88.9176C138.392 88.7766 138.365 88.6363 138.335 88.4967C138.302 88.3568 138.267 88.218 138.227 88.0802C138.191 87.9422 138.149 87.8053 138.103 87.6696C138.059 87.5336 138.011 87.399 137.958 87.2656C136.879 84.5278 134.841 83.1956 132.244 82.0777Z" fill="#FEFEFE"/>
<path d="M237.969 56.4124C235.618 56.1638 232.812 55.3167 230.487 55.4874L230.195 55.9765C230.231 56.823 230.025 57.5393 229.813 58.3484C229.67 59.5286 229.523 60.7053 229.334 61.8793C229.1 66.9255 227.673 70.8701 225.524 75.3731C226.874 75.3904 228.226 75.4282 229.575 75.4112C229.584 78.465 228.956 84.1964 231.111 86.511C231.973 87.4364 233.175 87.732 234.401 87.7158C237.417 87.6767 240.828 86.5778 243.502 85.2159C244.657 87.5423 245.677 89.6241 247.983 90.9666L248.359 90.818C248.981 91.9823 249.61 93.3588 250.547 94.3081C251.255 95.0261 252.066 95.3878 253.078 95.3868C255.841 95.3833 258.915 93.2272 260.787 91.356C263.052 89.0915 263.255 86.9018 263.233 83.8089C262.51 81.8113 262.308 79.2256 261.913 77.1127C262.282 76.7935 262.648 76.4698 262.992 76.1226C267.018 72.0478 267.361 65.1349 267.383 59.7221C264.997 59.0775 262.223 58.9483 259.756 58.5959C255.473 57.9841 251.126 57.183 246.817 56.8247C243.872 56.6274 240.918 56.5516 237.969 56.4124Z" fill="#F2BA87"/>
<path d="M234.602 63.0297C233.811 63.0227 233.135 63.1117 232.539 63.6854C232.134 64.0759 231.953 64.5654 231.975 65.1256C232.025 66.3549 232.678 66.9507 233.529 67.7071C233.865 67.712 234.222 67.721 234.552 67.6556C235.096 67.5476 235.562 67.146 235.865 66.6973C236.263 66.1056 236.296 65.4548 236.138 64.7735C235.919 63.8259 235.412 63.4936 234.602 63.0297Z" fill="#0F1632"/>
<path d="M237.188 75.5674C234.865 76.8577 233.367 77.5459 230.66 77.8959C231.006 78.5814 231.392 79.2495 231.762 79.9229C232.089 80.1832 232.439 80.4734 232.849 80.5848C233.484 80.7573 234.139 80.6247 234.683 80.2677C236.16 79.2987 236.865 77.2177 237.188 75.5674Z" fill="#FEFEFE"/>
<path d="M253.15 65.4287C252.855 65.4398 252.492 65.4328 252.209 65.517C251.81 65.6361 251.556 65.8992 251.339 66.2409C250.489 67.5776 250.275 70.1014 250.622 71.597L250.991 71.6621C251.649 71.3848 252.387 71.1075 252.95 70.664C253.642 70.1187 254.228 69.2003 254.295 68.3081C254.381 67.1725 253.875 66.2499 253.15 65.4287Z" fill="#E38451"/>
<path d="M237.972 56.4124C235.622 56.1638 232.816 55.3167 230.49 55.4874L230.199 55.9765C230.234 56.823 230.029 57.5393 229.817 58.3484C235.401 58.222 240.966 57.7952 246.544 57.665L246.82 56.8248C243.875 56.6274 240.921 56.5516 237.972 56.4124Z" fill="#F34231"/>
<path d="M267.383 59.7216C264.997 59.077 262.223 58.9478 259.756 58.5954C255.473 57.9836 251.126 57.1826 246.817 56.8242L246.541 57.6645C246.771 59.9265 246.488 66.2385 246.797 67.4557L247.173 67.7112C249.443 67.0125 251.757 61.6257 254.207 62.8329C255.191 63.3179 255.744 64.5674 256.024 65.5783C256.645 67.8192 256.237 70.532 255.078 72.5386C254.858 72.9208 254.587 73.276 254.314 73.6219C255.049 74.4448 255.984 75.3099 256.568 76.2356C257.592 77.1098 258.569 77.6017 259.966 77.4975C260.598 77.4504 261.312 77.3012 261.913 77.1122C262.282 76.7931 262.648 76.4693 262.991 76.1221C267.018 72.0473 267.361 65.1344 267.383 59.7216Z" fill="#0F1632"/>
<path d="M254.318 73.623C253.346 74.3816 252.736 76.1372 252.076 77.2065C249.971 80.6221 246.916 83.1767 243.506 85.2166C244.661 87.543 245.681 89.6248 247.987 90.9673L248.363 90.8187C248.985 91.983 249.614 93.3595 250.551 94.3088C251.259 95.0267 252.07 95.3885 253.082 95.3875C255.845 95.384 258.919 93.2279 260.791 91.3567C263.056 89.0922 263.259 86.9025 263.237 83.8096C262.514 81.812 262.312 79.2263 261.917 77.1134C261.316 77.3024 260.602 77.4517 259.97 77.4987C258.573 77.6029 257.596 77.1109 256.572 76.2368C255.988 75.3111 255.052 74.446 254.318 73.623Z" fill="#F2BA87"/>
<path d="M254.316 73.623C253.344 74.3816 252.734 76.1372 252.075 77.2065C249.969 80.6221 246.914 83.1767 243.504 85.2166C244.659 87.543 245.679 89.6248 247.985 90.9673L248.361 90.8187C248.944 89.7438 250.411 88.6713 251.291 87.7926C254.801 84.2884 255.351 80.7745 256.57 76.2368C255.986 75.3111 255.051 74.446 254.316 73.623Z" fill="#D59357"/>
<path d="M353.309 70.0277C344.391 70.2957 335.446 70.0063 326.523 70.0779C325.013 70.1025 323.468 70.0617 321.965 70.2025C321.659 83.3938 321.975 96.603 321.843 109.797L321.865 145.582L326.438 145.571C331.683 145.614 336.929 145.617 342.174 145.578C345.396 145.564 348.721 145.396 351.929 145.682L355.305 145.63C358.762 145.722 362.263 145.802 365.716 145.606C365.735 133.736 365.995 121.827 365.762 109.961L381.379 110.014C388.26 110.015 395.19 110.295 402.062 110.047C400.006 109.785 397.755 109.919 395.674 109.887L395.466 80.7578L395.561 79.7586C395.4 76.5989 395.553 73.3772 395.576 70.2112C385.326 69.6538 374.876 70.1076 364.599 70.0592C360.854 70.0395 357.049 69.8923 353.309 70.0277Z" fill="#FCE1B7"/>
<path d="M364.602 70.0589C360.857 70.0391 357.052 69.892 353.312 70.0274C353.34 75.4604 353.329 80.8933 353.279 86.3261C355.006 85.1248 356.723 83.9082 358.509 82.7938C360.473 84.0298 362.395 85.2359 364.513 86.1956L364.533 80.7731L364.53 79.8068L364.602 70.0589Z" fill="#F2BA87"/>
<path d="M395.578 70.2112C385.328 69.6538 374.878 70.1076 364.601 70.0592L364.529 79.8072L364.533 80.7734L395.468 80.7578L395.563 79.7587C395.402 76.5989 395.555 73.3772 395.578 70.2112Z" fill="#FCE1B7"/>
<path d="M395.562 79.7588L364.529 79.8072L364.533 80.7735L395.468 80.7579L395.562 79.7588Z" fill="#F2BA87"/>
<path d="M326.524 70.0781C325.014 70.1027 323.469 70.0619 321.966 70.2027C321.66 83.394 321.975 96.6032 321.844 109.797L321.865 145.582L326.439 145.571C326.457 143.822 326.582 142.003 326.266 140.277C328.295 140.332 340.131 140.794 341.066 139.918L341.037 139.34C338.249 138.661 329.916 139.139 326.573 139.156C326.105 131.052 326.426 122.776 326.437 114.655L326.524 70.0781Z" fill="#F2BA87"/>
<path d="M138.821 256.843C137.694 256.67 136.566 256.357 135.452 256.106C135.435 257.292 137.209 260.997 137.631 262.548C138.043 264.059 138.143 266.294 138.828 267.633C138.769 268.312 138.565 269.664 138.935 270.223C143.252 274.918 147.901 279.405 152.085 284.204C148.51 294.051 141.111 303.812 131.419 308.353C130.755 308.665 130.101 308.944 129.447 309.288L129.354 309.623C136.483 309.047 143.84 309.331 151.002 309.206C166.908 308.909 182.815 308.74 198.724 308.7L277.937 308.634C288.494 308.568 299.052 308.567 309.609 308.631C307.706 306.732 305.089 305.367 303.041 303.577C295.414 296.912 290.69 288.046 288.671 278.184C287.628 272.047 287.773 266.155 289.508 260.17C288.148 260.139 286.696 260 285.347 260.159C284.793 262.838 283.965 265.521 283.493 268.198C282.295 272.007 280.094 275.319 276.803 277.641C274.734 279.1 272.326 280.147 269.8 280.419C264.151 281.027 258.119 280.592 252.429 280.589L220.772 280.646L191.177 280.632C186.556 280.623 181.019 281.105 176.544 280.331C169.508 279.113 163.542 274.378 159.965 268.286C159.001 266.644 158.514 264.658 157.407 263.128C157.375 263.083 157.341 263.039 157.307 262.995L153.379 261.701C149.88 259.739 141.671 258.823 138.821 256.843Z" fill="#E3EFF3"/>
<path d="M138.824 256.843C137.696 256.67 136.569 256.357 135.455 256.106C135.438 257.292 137.212 260.997 137.634 262.548C138.046 264.059 138.146 266.294 138.831 267.633C138.772 268.312 138.568 269.664 138.938 270.223C143.255 274.918 147.904 279.405 152.087 284.204C154.339 276.631 155.489 269.499 153.382 261.701C149.882 259.739 141.674 258.823 138.824 256.843Z" fill="#0F1632"/>
<path d="M263.235 83.8086C263.257 86.9016 263.054 89.0912 260.789 91.3557C258.917 93.2269 255.843 95.383 253.08 95.3865C252.068 95.3875 251.257 95.0258 250.549 94.3078C249.612 93.3584 248.983 91.9819 248.361 90.8177L247.985 90.9663C246.189 93.7227 243.696 96.6997 242.317 99.6521L242.762 100.383C239.473 107.154 241.79 121.599 242.792 128.889C234.235 135.649 223.113 139.4 212.763 142.449C211.078 142.946 204.967 144.107 203.985 144.838C203.637 145.098 203.412 145.814 203.282 146.212C203.42 149.688 203.521 153.846 204.609 157.168C204.665 157.193 204.72 157.222 204.776 157.245C207.254 158.257 210.942 158.141 213.587 158.244C223.638 158.637 234.602 157.824 244.3 155.034C248.079 153.947 251.706 152.446 255.383 151.066L255.582 151.251C255.957 153.099 256.229 155.147 256.968 156.889L257.387 158.038C257.774 159.584 258.196 161.102 258.985 162.499C260.938 163.935 262.434 164.195 264.802 164.176C278.007 164.812 291.323 164.258 304.494 163.236L306.107 163.178C305.802 168.291 304.97 173.141 303.221 177.964C302.715 179.357 301.371 181.136 301.192 182.476L301.779 182.778L304.292 182.78C307.023 182.813 309.754 182.796 312.484 182.73C314.325 182.625 316.187 182.726 318.03 182.77L327.683 182.816C327.681 175.147 327.456 167.387 327.758 159.729L327.318 158.928L325.613 158.445C323.099 158.524 320.585 158.566 318.071 158.572C317.776 156.446 317.676 147.723 318.149 145.828L318.697 145.692C319.717 145.545 320.831 145.599 321.866 145.581L321.845 109.796C319.303 109.158 316.735 107.877 314.295 106.885C309.271 104.844 304.268 102.752 299.287 100.607C296.224 99.299 293.136 97.8038 289.964 96.7891C282.2 89.2464 274.445 85.2381 263.675 83.8911L263.235 83.8086Z" fill="#F34231"/>
<path d="M263.236 83.8086C263.258 86.9016 263.054 89.0912 260.789 91.3557C258.918 93.2269 255.844 95.383 253.08 95.3865C252.069 95.3875 251.258 95.0258 250.549 94.3078C249.613 93.3584 248.983 91.9819 248.362 90.8177L247.985 90.9663C246.189 93.7227 243.696 96.6997 242.317 99.6521L242.762 100.383C244.636 98.655 247.126 97.6275 248.85 95.7923C247.389 103.136 247.232 110.132 247.384 117.594C247.431 119.91 247.311 122.435 247.829 124.698C248.529 123.979 249.158 123.167 249.804 122.397C249.914 119.75 249.399 117.002 249.323 114.335C249.172 109.038 249.457 103.713 249.904 98.4345C250.957 98.7652 251.977 98.9784 253.083 99.0268C256.352 99.1695 259.513 98.0627 261.917 95.8228C263.879 93.9952 264.939 91.6068 265.019 88.9258C265.065 87.3679 264.759 85.0625 263.676 83.891L263.236 83.8086Z" fill="#D2210B"/>
<path d="M283.276 126.339C286.334 119.118 288.768 110.353 285.745 102.687C285.663 102.478 285.576 102.272 285.484 102.068C285.392 101.864 285.295 101.663 285.192 101.464C285.09 101.265 284.983 101.068 284.871 100.875C284.759 100.681 284.643 100.49 284.521 100.302C284.4 100.114 284.274 99.9297 284.143 99.7481C284.013 99.5664 283.878 99.3882 283.738 99.2135C283.598 99.0386 283.454 98.8673 283.306 98.6998C283.158 98.532 283.006 98.3681 282.85 98.2082C282.694 98.0483 282.534 97.8922 282.37 97.7401C282.205 97.588 282.038 97.4402 281.866 97.2966C281.695 97.1528 281.52 97.0136 281.342 96.8788C281.163 96.7438 280.982 96.6134 280.797 96.4876C280.612 96.3618 280.424 96.2407 280.233 96.1244C280.042 96.0078 279.849 95.8963 279.652 95.7896C279.456 95.6827 279.257 95.581 279.055 95.4843C278.854 95.3874 278.65 95.2956 278.444 95.2091C278.252 95.1311 278.059 95.0579 277.864 94.9896C277.669 94.9213 277.473 94.8578 277.274 94.7991C277.076 94.7405 276.877 94.6868 276.676 94.6378C276.476 94.5891 276.274 94.5454 276.071 94.5066C275.868 94.4678 275.664 94.4341 275.459 94.4055C275.255 94.3767 275.05 94.353 274.844 94.3345C274.638 94.3161 274.432 94.3027 274.226 94.2944C274.019 94.286 273.813 94.2828 273.607 94.2847C273.4 94.2865 273.194 94.2936 272.987 94.3058C272.781 94.3178 272.575 94.335 272.37 94.3574C272.165 94.3797 271.96 94.4071 271.756 94.4394C271.552 94.472 271.349 94.5095 271.147 94.5519C270.945 94.5944 270.744 94.642 270.544 94.6946C270.344 94.747 270.146 94.8043 269.948 94.8666C269.751 94.9289 269.556 94.996 269.362 95.0677C269.169 95.1398 268.977 95.2165 268.787 95.298C264.859 96.9483 261.621 100.437 260.077 104.391C259.257 106.489 259.028 108.463 258.991 110.692C262.267 105.139 265.555 98.2604 272.355 96.5301C275.034 95.8481 277.75 96.1707 280.121 97.6279C282.869 99.3176 284.705 102.226 285.411 105.344C287.034 112.515 284.369 120.352 280.509 126.361C274.854 135.166 266.687 143.045 258.02 148.845C257.356 149.289 255.371 150.299 255.384 151.066L255.583 151.25C256.077 151.207 256.563 151.142 257.048 151.038C264.586 149.432 273.931 139.599 278.441 133.674C280.224 131.331 281.666 128.797 283.276 126.339Z" fill="#B30909"/>
<path d="M283.273 126.34C281.664 128.798 280.222 131.332 278.438 133.675C273.929 139.6 264.584 149.433 257.046 151.039C256.56 151.143 256.075 151.208 255.581 151.251C255.956 153.1 256.228 155.148 256.967 156.89L257.386 158.039C257.773 159.584 258.195 161.103 258.984 162.499C260.937 163.935 262.433 164.196 264.801 164.177C267.758 160.187 282.525 130.746 283.273 126.34Z" fill="#D2210B"/>
<path d="M321.845 109.796C319.303 109.158 316.735 107.877 314.295 106.885C309.271 104.844 304.268 102.752 299.287 100.607C296.224 99.299 293.136 97.8038 289.965 96.7891C303.587 113.315 309.888 138.413 307.871 159.563C307.765 160.669 307.54 161.69 307.084 162.705C306.751 162.925 306.495 163.077 306.107 163.178C305.802 168.291 304.97 173.141 303.221 177.964C302.715 179.357 301.371 181.136 301.192 182.476L301.779 182.778L304.292 182.78C307.023 182.813 309.754 182.796 312.484 182.73C314.325 182.625 316.187 182.726 318.03 182.77L327.683 182.816C327.681 175.147 327.456 167.387 327.758 159.729L327.318 158.928L325.613 158.445C323.099 158.524 320.585 158.566 318.071 158.572C317.776 156.446 317.676 147.723 318.149 145.829L318.697 145.692C319.717 145.545 320.831 145.599 321.866 145.581L321.845 109.796Z" fill="#E3EFF3"/>
<path d="M325.613 158.446C323.099 158.525 320.585 158.567 318.071 158.573C318.337 161.712 318.19 164.902 318.157 168.051L318.03 182.771L327.683 182.817C327.681 175.148 327.456 167.388 327.758 159.73L327.318 158.929L325.613 158.446Z" fill="#07523A"/>
<path d="M441.456 199.717C437.061 199.268 432.373 199.59 427.944 199.592L401.566 199.616L341.806 199.642C338.911 199.666 328.392 199.389 326.53 199.911C326.475 200.707 326.463 201.485 326.475 202.282C339.665 203.498 350.683 206.71 361.178 215.15C362.022 215.892 362.853 216.689 363.74 217.375C364.952 218.509 366.153 219.655 367.344 220.811C371.561 225.321 374.892 229.8 378.329 234.912L378.441 234.967C378.929 235.93 379.405 236.901 379.942 237.838C383.706 245.488 385.925 252.555 387.405 260.942C385.544 260.857 383.6 260.869 381.754 260.655C378.408 260.182 374.794 260.43 371.414 260.457C372.971 267.644 373.117 275.161 371.174 282.292C368.764 292.757 362.179 301.578 353.144 307.245C352.001 307.962 350.778 308.594 349.67 309.357C367.964 309.221 386.252 309.457 404.536 310.064C413.614 310.327 422.84 310.317 431.889 311.014C431.998 310.176 435.306 307.807 436.135 307.048C439.056 304.373 441.993 301.228 444.26 297.973C452.747 285.788 456.672 270.886 453.99 256.097C450.056 234.411 433.96 218.759 416.612 206.673C413.129 204.246 409.348 202.307 405.866 199.883C414.432 199.787 423.005 199.873 431.571 199.875C433.738 199.876 439.654 200.271 441.456 199.717Z" fill="#E3EFF3"/>
<path d="M379.939 237.838C389.427 237.529 399.011 237.871 408.506 237.926C409.751 237.934 411.41 238.099 412.342 237.172C412.366 236.453 412.369 236.045 412.004 235.414C410.178 234.643 383.298 235.043 378.437 234.967C378.925 235.931 379.402 236.901 379.939 237.838Z" fill="#FEFEFE"/>
<path d="M380.348 224.857C378.844 222.525 376.778 220.561 374.08 219.721C371.546 218.933 369.598 219.593 367.344 220.81C371.56 225.321 374.891 229.8 378.328 234.912L378.41 234.841C378.819 234.49 379.246 234.137 379.605 233.734C381.135 232.013 381.243 229.33 381.133 227.167C380.921 226.384 380.62 225.62 380.348 224.857Z" fill="#F8B52F"/>
<path d="M381.134 227.167C387.396 227.94 394.724 227.454 401.081 227.455L417.167 227.421C419.934 227.44 422.734 227.638 425.496 227.568C426.262 227.548 427.03 227.55 427.723 227.19C427.823 226.969 427.964 226.703 428.008 226.459C428.113 225.867 427.948 225.645 427.584 225.212C425.904 224.534 385.17 224.888 380.349 224.858C380.621 225.621 380.923 226.385 381.134 227.167Z" fill="#FEFEFE"/>
<path d="M363.741 217.375C367.311 217.057 371.817 217.484 375.48 217.485C383.09 217.487 390.708 217.263 398.316 217.338C400.407 217.359 406.853 217.855 408.486 217.385C408.901 217.266 409.026 217.148 409.199 216.755C409.357 216.397 409.375 215.893 409.225 215.529C409.116 215.265 409.063 215.138 408.794 215.023C407.926 214.653 362.723 214.558 361.179 215.151C362.023 215.892 362.853 216.689 363.741 217.375Z" fill="#FEFEFE"/>
<path d="M414.125 289.791C409.815 289.562 405.441 289.722 401.123 289.708C399.29 289.702 397.2 289.396 395.4 289.668C394.015 289.876 392.611 290.41 391.813 291.636C391.461 292.178 391.325 292.824 391.478 293.456C391.793 294.757 392.829 295.528 393.893 296.204C396.742 296.522 399.827 296.312 402.7 296.324C405.722 296.335 408.989 296.587 411.981 296.233C413.398 296.066 415.406 295.524 416.268 294.3C416.549 293.9 416.637 293.444 416.54 292.967C416.295 291.76 415.074 290.507 414.125 289.791Z" fill="#9FD2F3"/>
<path d="M435.275 276.724C431.835 276.526 417.663 276.225 414.943 276.808C414.12 276.985 413.57 277.329 413.113 278.047C412.587 278.876 412.465 279.894 412.705 280.842C413.002 282.008 413.866 282.581 414.812 283.188C418.481 283.47 422.27 283.355 425.95 283.386C428.684 283.409 431.736 283.673 434.444 283.281C435.335 283.151 436.004 282.891 436.533 282.129C437.131 281.267 437.349 280.05 437.152 279.024C436.939 277.919 436.118 277.348 435.275 276.724Z" fill="#9FD2F3"/>
<path d="M407.216 276.978C405.002 276.818 402.735 276.903 400.515 276.897C396.963 276.887 385.541 275.973 383.149 278.561C382.753 278.989 382.51 279.521 382.576 280.111C382.728 281.489 383.961 282.845 384.993 283.676C388.975 283.838 393.009 283.718 396.996 283.719C400.021 283.721 403.434 284.025 406.406 283.461C407.429 283.267 408.32 283.015 408.906 282.08C409.425 281.254 409.541 280.304 409.279 279.367C408.932 278.122 408.3 277.581 407.216 276.978Z" fill="#9FD2F3"/>
<path d="M422.454 264.814C418.959 264.682 398.054 264.324 396.117 264.982C395.37 265.236 394.719 265.783 394.375 266.496C393.943 267.391 393.966 268.642 394.325 269.559C394.7 270.519 395.484 270.89 396.373 271.287C401.095 271.408 405.815 271.278 410.538 271.331C413.949 271.37 418.032 271.903 421.376 271.259C422.53 271.037 423.732 270.508 424.364 269.466C424.767 268.801 424.925 267.965 424.728 267.207C424.41 265.973 423.493 265.382 422.454 264.814Z" fill="#9FD2F3"/>
<path d="M420.451 109.843C416.658 109.818 412.794 109.653 409.008 109.871C406.757 110.233 404.338 110.087 402.062 110.048C395.189 110.296 388.259 110.015 381.378 110.015L365.761 109.961C365.994 121.828 365.734 133.736 365.715 145.607C362.262 145.803 358.761 145.722 355.304 145.63L351.928 145.682C348.72 145.396 345.396 145.565 342.173 145.579C336.928 145.617 331.682 145.615 326.437 145.571L321.864 145.582C320.829 145.6 319.715 145.545 318.694 145.693L318.146 145.829C317.673 147.724 317.773 156.447 318.068 158.573C320.582 158.567 323.097 158.524 325.61 158.446L327.315 158.929L327.755 159.729C327.453 167.387 327.678 175.148 327.68 182.816L318.028 182.771C316.184 182.727 314.322 182.625 312.481 182.73C312.314 187.456 312.776 191.342 316.144 194.961C318.308 197.286 321.248 198.788 324.302 199.568C325.071 199.606 325.519 199.546 326.191 199.98C326.43 200.746 326.338 201.434 326.274 202.218L326.471 202.282C326.459 201.485 326.471 200.707 326.526 199.911C328.388 199.389 338.908 199.666 341.802 199.642L401.562 199.616L427.94 199.592C432.369 199.59 437.057 199.268 441.452 199.717C444.164 199.334 446.693 198.365 448.633 196.363C452.255 192.624 451.724 187.584 451.686 182.805C450.548 182.755 449.405 182.752 448.267 182.727L448.282 139.397C448.28 129.667 448.393 119.915 448.16 110.188C442.009 109.935 435.804 110.085 429.646 110.071C426.601 110.065 423.475 110.208 420.451 109.843Z" fill="#F8B52F"/>
<path d="M398.539 176.351C395.987 176.155 385.969 175.814 383.977 176.439L383.674 177.35C385.901 177.644 395.597 177.683 397.69 177.214C398.226 177.093 398.262 176.804 398.539 176.351Z" fill="#D2210B"/>
<path d="M443.906 175.895C441.265 175.644 429.549 175.323 427.631 176.02L427.383 176.702C429.773 177.008 441.867 177.493 443.603 176.78L443.906 175.895Z" fill="#FCE1B7"/>
<path d="M420.471 121.423C426.972 120.971 433.668 121.258 440.187 121.246C442.43 121.243 445.895 121.695 447.978 121.009L448.02 120.666C446.623 119.858 424.244 120.287 420.492 120.281L420.471 121.423Z" fill="#EC8224"/>
<path d="M438.071 164.198C437.694 164.259 437.334 164.331 436.968 164.445C435.718 164.836 434.722 165.551 434.157 166.763C433.76 167.614 433.694 168.632 434.019 169.518C434.576 171.03 435.691 171.71 437.085 172.303C437.888 172.252 438.771 172.212 439.498 171.847C440.482 171.353 441.262 170.394 441.567 169.337C441.868 168.29 441.744 167.202 441.184 166.264C440.441 165.018 439.385 164.584 438.071 164.198Z" fill="#FEFEFE"/>
<path d="M390.617 165.386C389.957 165.35 389.252 165.33 388.603 165.476C387.465 165.732 386.408 166.548 385.866 167.578C385.807 167.691 385.755 167.807 385.708 167.925C385.661 168.044 385.62 168.164 385.586 168.287C385.551 168.409 385.523 168.534 385.501 168.659C385.479 168.784 385.463 168.911 385.454 169.037C385.445 169.165 385.442 169.292 385.446 169.419C385.449 169.546 385.459 169.673 385.475 169.799C385.492 169.926 385.515 170.051 385.544 170.175C385.573 170.299 385.608 170.421 385.649 170.541C386.161 172.056 387.294 172.787 388.643 173.447C389.353 173.545 390.155 173.529 390.838 173.303C391.855 172.965 392.73 172.244 393.2 171.274C393.69 170.264 393.72 169.091 393.354 168.037C392.865 166.625 391.871 166.017 390.617 165.386Z" fill="#D2210B"/>
<path d="M420.454 109.843C416.662 109.818 412.797 109.653 409.011 109.871C409.039 116.303 408.82 122.78 408.971 129.204C410.993 127.463 412.827 125.494 414.888 123.809C416.691 125.514 418.461 127.318 420.367 128.904C420.412 126.444 420.256 123.863 420.471 121.423L420.492 120.281C420.239 116.844 420.436 113.293 420.454 109.843Z" fill="#EC8224"/>
<path d="M381.381 110.015L365.764 109.961C365.997 121.828 365.737 133.736 365.719 145.607C369.703 145.436 373.789 145.392 377.772 145.551C377.815 147.459 378.362 157.33 377.538 158.474C377.152 158.554 376.77 158.643 376.377 158.679L376.337 159.795C376.404 167.47 376.421 175.146 376.387 182.821L381.438 182.796L381.404 137.185C381.379 128.137 381.162 119.058 381.381 110.015Z" fill="#EC8224"/>
<path d="M326.439 145.571L321.866 145.582C320.831 145.6 319.716 145.545 318.696 145.692L318.148 145.829C317.675 147.723 317.775 156.446 318.07 158.572C320.584 158.566 323.099 158.524 325.612 158.446L327.317 158.928L327.757 159.729C327.455 167.387 327.68 175.148 327.682 182.816L376.386 182.821C376.42 175.146 376.403 167.47 376.336 159.795L376.376 158.679C376.769 158.643 377.151 158.554 377.536 158.474C378.361 157.33 377.814 147.459 377.771 145.55C373.788 145.392 369.701 145.436 365.717 145.606C362.264 145.802 358.763 145.722 355.306 145.63L351.93 145.682C348.722 145.396 345.398 145.564 342.175 145.578C336.93 145.617 331.684 145.615 326.439 145.571Z" fill="#1C9A72"/>
<path d="M355.305 145.63L351.929 145.681C350.046 145.812 348.175 145.788 346.29 145.766C346.321 148.313 346.873 156.244 346.104 158.18C342.897 159.537 331.841 158.134 327.316 158.928L327.756 159.729C333.583 160.334 339.792 159.89 345.668 159.856L376.335 159.795L376.375 158.679C372.078 158.287 358.16 159.384 355.367 158.003C354.479 155.776 355.247 148.404 355.305 145.63Z" fill="#0C7855"/>
<path d="M365.717 145.607C362.264 145.802 358.763 145.722 355.306 145.63C355.248 148.404 354.48 155.776 355.368 158.003C358.161 159.385 372.079 158.287 376.376 158.679C376.769 158.643 377.151 158.554 377.536 158.474C378.361 157.33 377.814 147.459 377.771 145.55C373.788 145.392 369.701 145.436 365.717 145.607Z" fill="#1C9A72"/>
<path d="M326.439 145.57L321.865 145.581C320.83 145.599 319.716 145.544 318.696 145.692L318.148 145.828C317.675 147.723 317.775 156.446 318.07 158.572C320.584 158.566 323.098 158.523 325.612 158.445L327.317 158.928C331.842 158.134 342.898 159.537 346.105 158.179C346.874 156.244 346.322 148.313 346.29 145.766C348.176 145.787 350.047 145.812 351.93 145.681C348.722 145.395 345.397 145.564 342.175 145.578C336.929 145.616 331.684 145.614 326.439 145.57Z" fill="#1C9A72"/>
<path d="M318.697 145.692L318.15 145.829C317.676 147.723 317.777 156.446 318.071 158.572C320.586 158.566 323.1 158.524 325.613 158.446C325.421 154.255 325.686 149.931 325.727 145.728C323.386 145.769 321.033 145.87 318.697 145.692Z" fill="#0C7855"/>
<path d="M327.68 182.816L318.028 182.77C316.184 182.726 314.322 182.625 312.481 182.729C312.314 187.455 312.776 191.341 316.144 194.96C318.308 197.286 321.248 198.787 324.302 199.568C325.071 199.606 325.519 199.545 326.191 199.98C326.43 200.745 326.338 201.433 326.274 202.217L326.471 202.281C326.459 201.485 326.471 200.707 326.526 199.911C328.388 199.389 338.908 199.666 341.802 199.641L401.562 199.616L427.94 199.591C432.369 199.59 437.057 199.268 441.452 199.716C444.164 199.333 446.693 198.365 448.633 196.362C452.255 192.624 451.724 187.584 451.686 182.804C450.548 182.755 449.405 182.752 448.267 182.727C426.001 183.096 403.71 182.559 381.434 182.795L376.384 182.821L327.68 182.816Z" fill="#B38466"/>
<path d="M289.881 201.904L289.165 201.874C287.606 202.639 286.034 203.373 284.447 204.077C282.861 204.781 281.262 205.454 279.649 206.095C278.037 206.737 276.412 207.347 274.776 207.926C273.14 208.505 271.493 209.051 269.836 209.566C268.178 210.081 266.511 210.563 264.835 211.013C263.159 211.463 261.475 211.88 259.783 212.265C258.091 212.65 256.392 213.001 254.686 213.32C252.98 213.639 251.268 213.924 249.552 214.176C249.885 214.46 250.296 214.899 250.667 215.112C256.179 218.94 258.793 222.349 260.036 229.194C261.501 237.255 259.266 247.715 254.537 254.458C251.21 259.201 246.679 262.325 241.116 263.83L241.248 265.26C241.361 266.276 241.392 267.446 241.676 268.42C244.263 267.766 250.679 268.186 253.705 268.178C263.636 268.132 273.567 268.139 283.498 268.198C283.969 265.522 284.798 262.838 285.351 260.16C286.701 260.001 288.153 260.14 289.513 260.171C287.778 266.156 287.633 272.048 288.676 278.184C290.694 288.047 295.418 296.912 303.046 303.578C305.094 305.367 307.711 306.732 309.614 308.632C309.663 308.643 309.712 308.654 309.761 308.667C312.309 309.334 314.688 311.174 317.213 312.051C329.217 316.222 338.35 314.473 349.672 309.357C350.78 308.594 352.002 307.962 353.145 307.246C362.18 301.579 368.765 292.757 371.175 282.292C373.118 275.161 372.972 267.644 371.415 260.457C374.795 260.43 378.409 260.182 381.756 260.655C383.601 260.869 385.546 260.857 387.406 260.942C385.926 252.555 383.707 245.488 379.944 237.838C379.407 236.901 378.93 235.931 378.442 234.967L378.33 234.912C374.893 229.8 371.562 225.321 367.345 220.811C366.154 219.655 364.953 218.509 363.742 217.375C362.854 216.689 362.023 215.892 361.18 215.15C350.684 206.71 339.666 203.498 326.476 202.282L326.279 202.218C314.146 201.912 302.015 202.101 289.881 201.904Z" fill="#F8B52F"/>
<path d="M355.451 260.376C350.814 260.332 346.106 260.174 341.476 260.382C342.908 263.092 344.002 265.502 344.418 268.578C346.861 269.007 354.786 269.26 357.344 269.167L357.555 268.562C357.133 265.692 356.503 263.084 355.451 260.376Z" fill="#949BC8"/>
<path d="M371.413 260.457C366.091 260.482 360.771 260.455 355.45 260.376C356.502 263.084 357.132 265.692 357.554 268.562C357.617 268.916 357.652 269.578 357.793 269.889C357.862 270.042 358.033 270.123 358.157 270.237C359.847 271.805 361.98 272.872 363.663 274.458C365.298 275.999 369.825 281.354 371.041 282.214C371.083 282.244 371.129 282.266 371.173 282.292C373.116 275.161 372.97 267.644 371.413 260.457Z" fill="#0F1632"/>
<path d="M365.831 244.756C360.841 244.51 355.765 244.689 350.765 244.684L326.651 244.669C325.135 244.681 323.05 244.557 321.945 245.788C321.436 246.356 321.307 247.091 321.399 247.833C321.566 249.174 322.298 249.991 323.339 250.766C327.382 250.855 364.537 251.072 366.279 250.38C367.034 250.08 367.529 249.387 367.819 248.651C368.127 247.869 368.198 246.923 367.798 246.162C367.328 245.266 366.78 245.011 365.831 244.756Z" fill="#E26518"/>
<path d="M289.881 201.904L289.164 201.874C287.606 202.639 286.034 203.373 284.447 204.077C282.861 204.781 281.262 205.454 279.649 206.095C278.036 206.737 276.412 207.347 274.776 207.926C273.14 208.505 271.493 209.051 269.835 209.566C268.178 210.081 266.511 210.563 264.835 211.013C263.159 211.463 261.475 211.88 259.783 212.265C258.091 212.65 256.391 213.001 254.686 213.32C252.98 213.639 251.268 213.924 249.551 214.176C249.885 214.46 250.296 214.899 250.667 215.112C256.179 218.94 258.793 222.349 260.036 229.194C261.501 237.255 259.266 247.715 254.537 254.458C251.21 259.201 246.679 262.325 241.116 263.83L241.247 265.26C241.361 266.276 241.392 267.446 241.676 268.42C244.263 267.766 250.678 268.186 253.705 268.178C263.636 268.132 273.567 268.139 283.497 268.198C283.969 265.522 284.798 262.838 285.351 260.16L284.598 259.849C284.03 258.447 284.268 256.241 284.28 254.72C284.327 248.527 284.411 242.95 286.871 237.125C291.313 226.605 299.134 218.543 309.769 214.243C321.373 209.551 335.535 210.253 346.966 215.139C361.32 221.274 372.088 231.835 377.919 246.405C379.944 251.466 380.548 255.485 381.756 260.655C383.601 260.869 385.546 260.857 387.406 260.942C385.926 252.555 383.707 245.487 379.944 237.838C379.407 236.9 378.93 235.93 378.442 234.967L378.33 234.912C374.893 229.8 371.562 225.321 367.345 220.811C366.154 219.655 364.953 218.509 363.742 217.374C362.854 216.689 362.023 215.892 361.18 215.15C350.684 206.709 339.666 203.498 326.476 202.282L326.279 202.217C314.146 201.912 302.015 202.101 289.881 201.904Z" fill="#E26518"/>
<path d="M241.245 265.26C241.881 265.256 242.518 265.243 243.155 265.221C250.641 264.969 257.967 262.404 263.134 256.779C268.017 251.463 270.308 244.277 270 237.112C269.728 230.787 267.505 225.11 262.787 220.796C260.348 218.566 254.091 214.974 250.664 215.112C256.176 218.94 258.79 222.349 260.033 229.194C261.498 237.255 259.263 247.715 254.534 254.458C251.207 259.201 246.676 262.325 241.113 263.83L241.245 265.26Z" fill="#D2210B"/>
<path d="M305.173 260.219L289.51 260.171C287.775 266.155 287.63 272.048 288.673 278.184C290.691 288.046 295.415 296.912 303.043 303.578C305.09 305.367 307.708 306.732 309.611 308.631C309.659 308.643 309.709 308.654 309.758 308.667C312.306 309.334 314.685 311.174 317.209 312.051C329.214 316.222 338.346 314.472 349.668 309.356C350.776 308.594 351.999 307.962 353.142 307.245C362.177 301.578 368.762 292.756 371.172 282.292C371.128 282.266 371.082 282.243 371.04 282.214C369.824 281.353 365.297 275.999 363.662 274.458C361.979 272.871 359.846 271.804 358.156 270.237C358.032 270.123 357.861 270.042 357.792 269.889C357.651 269.577 357.616 268.915 357.553 268.562L357.342 269.166C354.784 269.26 346.859 269.006 344.416 268.578C344 265.502 342.906 263.092 341.474 260.382C334.706 260.372 327.763 259.986 321.021 260.406C315.937 260.331 310.826 260.386 305.75 260.13L305.173 260.219Z" fill="#2A316C"/>
<path d="M305.172 260.22L289.509 260.171C287.774 266.156 287.629 272.048 288.672 278.184C290.377 276.736 291.88 274.668 293.376 272.987C297.185 268.707 301.016 264.143 305.172 260.22Z" fill="#0F1632"/>
<path d="M321.024 260.406C315.941 260.331 310.83 260.386 305.753 260.13C303.089 267.71 303.059 274.907 306.576 282.278C306.767 282.671 306.969 283.059 307.179 283.441C307.39 283.824 307.61 284.201 307.839 284.573C308.068 284.945 308.306 285.311 308.552 285.672C308.799 286.032 309.055 286.386 309.319 286.734C309.583 287.082 309.855 287.423 310.136 287.758C310.416 288.092 310.705 288.42 311.002 288.74C311.299 289.061 311.603 289.374 311.915 289.679C312.227 289.985 312.546 290.283 312.872 290.573C313.199 290.863 313.532 291.145 313.872 291.418C314.212 291.692 314.559 291.957 314.912 292.214C315.265 292.471 315.624 292.719 315.99 292.958C316.355 293.197 316.725 293.428 317.102 293.649C317.478 293.87 317.86 294.082 318.246 294.284C318.633 294.487 319.025 294.68 319.421 294.863C319.817 295.047 320.217 295.22 320.622 295.384C321.026 295.548 321.435 295.702 321.847 295.846C328.328 298.126 335.77 297.828 341.983 294.837C342.187 294.738 342.389 294.637 342.59 294.534C342.791 294.43 342.991 294.324 343.19 294.215C343.388 294.106 343.585 293.995 343.781 293.882C343.977 293.768 344.171 293.652 344.364 293.534C344.557 293.415 344.748 293.295 344.938 293.172C345.128 293.049 345.316 292.923 345.503 292.795C345.69 292.668 345.875 292.538 346.059 292.405C346.243 292.273 346.425 292.138 346.605 292.001C346.785 291.865 346.964 291.726 347.14 291.585C347.317 291.443 347.492 291.3 347.666 291.154C347.839 291.009 348.01 290.861 348.18 290.711C348.35 290.561 348.518 290.41 348.683 290.256C348.849 290.102 349.013 289.946 349.175 289.787C349.337 289.629 349.497 289.469 349.656 289.307C349.814 289.145 349.97 288.981 350.124 288.816C350.278 288.65 350.43 288.482 350.58 288.312C350.73 288.143 350.878 287.971 351.023 287.798C351.169 287.625 351.313 287.45 351.454 287.273C351.595 287.096 351.735 286.918 351.871 286.737C352.008 286.557 352.143 286.375 352.276 286.192C352.408 286.008 352.538 285.823 352.666 285.636C352.794 285.449 352.92 285.261 353.043 285.071C353.166 284.881 353.287 284.689 353.406 284.496C353.524 284.304 353.64 284.109 353.754 283.914C353.868 283.718 353.979 283.521 354.088 283.322C354.197 283.123 354.303 282.923 354.407 282.722C354.511 282.521 354.612 282.319 354.711 282.115C354.81 281.912 354.907 281.707 355 281.501C355.094 281.294 355.186 281.087 355.274 280.879C355.363 280.671 355.449 280.461 355.533 280.251C355.617 280.04 355.698 279.829 355.776 279.616C355.854 279.404 355.93 279.191 356.003 278.976C356.988 276.159 357.984 272.152 357.345 269.167C354.788 269.26 346.862 269.007 344.419 268.578C344.004 265.502 342.91 263.092 341.478 260.382C334.71 260.372 327.766 259.986 321.024 260.406Z" fill="#A8ACD3"/>
<path d="M341.472 260.381C334.704 260.371 327.761 259.986 321.019 260.405C318.776 262.701 317.329 266.786 317.354 269.986C317.383 273.596 319.176 277.129 321.76 279.592C321.921 279.743 322.085 279.891 322.252 280.035C322.42 280.178 322.591 280.318 322.766 280.453C322.941 280.588 323.118 280.719 323.299 280.845C323.48 280.971 323.664 281.093 323.851 281.21C324.038 281.328 324.228 281.441 324.421 281.548C324.614 281.656 324.809 281.759 325.006 281.858C325.204 281.956 325.404 282.049 325.606 282.138C325.809 282.226 326.013 282.309 326.219 282.387C326.426 282.466 326.634 282.539 326.844 282.607C327.054 282.675 327.265 282.738 327.478 282.795C327.692 282.853 327.906 282.905 328.122 282.952C328.337 282.999 328.554 283.041 328.772 283.077C328.989 283.113 329.208 283.144 329.427 283.169C329.646 283.195 329.866 283.215 330.086 283.229C330.306 283.244 330.527 283.253 330.748 283.256C330.968 283.26 331.189 283.258 331.41 283.251C334.902 283.146 338.019 281.712 340.407 279.163C343.216 276.165 344.311 272.61 344.414 268.577C343.999 265.501 342.904 263.091 341.472 260.381Z" fill="#FEFEFE"/>
<path d="M166.245 132.66C161.977 132.024 144.813 125.851 142.623 126.278C142.233 126.354 142.163 126.644 141.952 126.96C134.979 127.866 128.058 127.924 121.109 129.297C97.8814 133.887 77.577 147.777 63.2533 166.379C45.1904 189.836 37.5494 221.41 41.3543 250.627C43.4885 267.017 48.8673 283.043 57.9886 296.896C60.0802 300.014 62.2997 303.038 64.6472 305.967C65.4393 306.938 68.5835 310.102 68.8049 311.086C72.6029 311.279 76.5808 310.846 80.3857 310.665C85.6883 310.412 90.9425 310.319 96.2521 310.368C97.3487 311 99.6419 311.254 100.967 311.665C107.663 313.745 114.72 314.051 121.499 312.092C124.042 311.358 126.518 310.221 129.102 309.675L129.355 309.624L129.448 309.288C130.102 308.944 130.756 308.666 131.42 308.354C141.112 303.812 148.511 294.051 152.085 284.204C147.902 279.405 143.253 274.918 138.936 270.224C138.566 269.665 138.77 268.313 138.829 267.634C138.144 266.294 138.044 264.059 137.632 262.549C137.21 260.997 135.436 257.292 135.453 256.107C136.567 256.357 137.694 256.671 138.822 256.844C137.618 252.038 129.206 224.434 129.742 222.368C128.161 221.521 125.152 218.758 124.671 217.032C124.543 216.571 124.702 216.484 124.938 216.072C124.433 215.678 124.225 215.458 124.017 214.847C124.011 214.789 124.004 214.733 124 214.676C123.782 212.298 125.726 209.177 127.214 207.4C127.418 206.425 128.237 205.366 128.877 204.623C129.043 203.372 135.18 194.12 136.418 192.092C143.236 180.929 149.562 169.447 156.475 158.355C162.5 157.978 168.787 158.854 174.752 157.822C175.944 157.268 177.28 156.918 178.503 156.389L178.423 153.165L178.303 151.849C179.516 151.348 180.446 150.691 181.418 149.821L182.203 148.544C179.584 146.163 176.008 144.453 174.135 141.375L174.679 140.92C174.256 139.673 172.895 138.386 172.052 137.396C170.776 136.112 169.531 134.799 168.316 133.457L166.456 132.898L166.245 132.66Z" fill="#E3EFF3"/>
<path d="M137.705 140.149L137.103 139.563L136.66 139.587C135.339 141.746 135.989 150.635 136.667 153.164C136.774 153.56 137.065 153.793 137.38 154.027L137.898 153.743C137.75 153.417 137.615 153.087 137.514 152.742C136.857 150.446 136.594 142.218 137.705 140.149Z" fill="#2A316C"/>
<path d="M126.734 199.839C123.815 199.631 109.982 198.954 108.225 200.397C107.336 201.127 106.862 202.796 106.842 203.932C106.824 204.727 107.205 205.492 107.776 206.029C108.505 206.709 109.474 207.063 110.439 207.237C113.504 207.788 123.739 207.583 127.215 207.4C127.419 206.425 128.239 205.366 128.879 204.623C128.308 201.624 128.249 202.27 126.734 199.839Z" fill="#9FD2F3"/>
<path d="M88.1716 199.683C85.5635 199.67 81.2674 198.766 79.1194 200.519C78.2062 201.267 77.4487 202.633 77.3968 203.828C77.3692 204.507 77.6217 205.105 78.0956 205.586C80.8662 208.404 89.8423 207.379 93.5261 207.353C96.0132 207.342 99.9738 208.087 102.042 206.46C102.969 205.73 103.626 204.365 103.723 203.192C103.789 202.416 103.561 201.725 103.021 201.16C100.8 198.836 91.5372 199.693 88.1716 199.683Z" fill="#9FD2F3"/>
<path d="M117.202 188.528C113.39 187.983 109.067 188.402 105.206 188.377C101.495 188.353 97.6242 188.028 93.9334 188.25C93.3108 188.287 92.657 188.478 92.107 188.772C91.9871 188.836 91.8706 188.906 91.7577 188.982C91.6447 189.058 91.5351 189.14 91.4291 189.227C91.3254 189.315 91.2261 189.407 91.1316 189.505C91.037 189.603 90.9471 189.706 90.8618 189.813C90.7788 189.92 90.7004 190.031 90.6266 190.147C90.5551 190.262 90.4893 190.381 90.4294 190.503C90.3694 190.626 90.3153 190.751 90.2669 190.879C90.2207 191.007 90.1804 191.137 90.1458 191.269C89.876 192.301 90.0109 193.386 90.6024 194.283C91.2422 195.252 92.062 195.726 93.1793 195.934C97.1088 196.404 101.519 196.05 105.5 196.042C109.015 196.034 113.12 196.424 116.573 195.858C117.583 195.692 118.6 195.248 119.17 194.358C119.703 193.526 119.706 192.499 119.492 191.565C119.136 190.01 118.465 189.365 117.202 188.528Z" fill="#9FD2F3"/>
<path d="M166.245 132.66C161.977 132.024 144.813 125.851 142.623 126.278C142.233 126.354 142.163 126.644 141.952 126.96C141.323 129.16 140.002 132.241 139.953 134.488L140.589 134.917C139.6 135.184 139.393 135.492 138.877 136.375C138.224 137.487 137.431 138.842 137.705 140.149C136.594 142.219 136.857 150.447 137.514 152.743C137.615 153.088 137.75 153.418 137.898 153.743L137.38 154.028C137.182 154.732 137.29 155.23 137.639 155.878C138.338 157.183 139.877 157.704 141.202 158.107L141.16 158.672C142.412 159.68 154.287 158.486 156.475 158.355C162.5 157.978 168.787 158.854 174.752 157.822C175.944 157.268 177.28 156.918 178.503 156.389L178.423 153.165L178.303 151.849C179.516 151.348 180.446 150.691 181.418 149.821L182.203 148.544C179.584 146.163 176.008 144.453 174.135 141.375L174.679 140.92C174.256 139.673 172.895 138.386 172.052 137.396C170.776 136.112 169.531 134.799 168.316 133.457L166.456 132.898L166.245 132.66Z" fill="#F8B52F"/>
<path d="M137.901 153.743C137.874 153.857 137.825 153.968 137.815 154.085C137.784 154.439 137.981 154.811 138.199 155.07C138.745 155.713 139.582 155.958 140.399 155.985C141.122 156.01 141.775 155.844 142.298 155.317C144.377 153.213 144.774 148.287 144.84 145.512C144.906 142.706 144.757 137.697 142.571 135.577C141.962 134.985 141.416 134.897 140.592 134.916C139.603 135.183 139.396 135.492 138.88 136.374C138.226 137.486 137.434 138.842 137.708 140.149C136.597 142.218 136.86 150.446 137.517 152.742C137.618 153.087 137.753 153.417 137.901 153.743Z" fill="#FEFEFE"/>
<path d="M168.316 133.457L166.456 132.898C165.74 136.471 165.078 140.053 164.47 143.644C164.053 146.063 163.8 148.731 162.997 151.054C162.686 151.954 162.343 152.802 161.522 153.348C157.684 155.904 142.821 156.994 141.202 158.107L141.16 158.672C142.412 159.68 154.287 158.486 156.475 158.355C162.5 157.978 168.787 158.854 174.752 157.822C175.944 157.268 177.28 156.918 178.503 156.389L178.423 153.165L178.303 151.849C179.516 151.348 180.446 150.691 181.418 149.821L182.203 148.544C179.584 146.163 176.008 144.454 174.135 141.375L174.679 140.92C174.256 139.673 172.895 138.386 172.052 137.396C170.776 136.112 169.531 134.799 168.316 133.457Z" fill="#E26518"/>
<path d="M174.135 141.375C172.718 142.196 171.761 143.301 171.36 144.928C170.966 146.528 171.248 148.368 172.149 149.75C172.88 150.872 173.986 151.725 175.308 152C176.244 152.195 177.378 152.108 178.303 151.849C179.516 151.348 180.446 150.691 181.418 149.821L182.203 148.544C179.584 146.163 176.008 144.453 174.135 141.375Z" fill="#0F1632"/>
<path d="M124.02 214.846C107.095 214.827 87.5826 217.942 75.0817 230.434C72.2349 233.281 65.9742 241.347 66.1575 245.266C66.161 245.376 66.1748 245.485 66.1818 245.594C69.7445 245.256 75.3101 244.507 78.7172 245.364C80.2599 244.279 92.9129 245.963 95.3066 246.39C95.9811 246.511 96.6383 246.654 97.2886 246.875C107.001 247.354 125.881 253.049 135.455 256.106C136.569 256.356 137.697 256.67 138.824 256.843C137.62 252.037 129.208 224.433 129.744 222.368C128.164 221.521 125.154 218.757 124.673 217.031C124.545 216.57 124.705 216.483 124.94 216.071C124.435 215.678 124.227 215.457 124.02 214.846Z" fill="#F34231"/>
<path d="M97.2868 246.876C96.6365 246.655 95.9793 246.512 95.3048 246.392C92.9112 245.964 80.2582 244.28 78.7154 245.365C77.5913 246.185 75.3568 248.635 75.0696 250.014C75.042 250.147 75.0558 250.337 75.0558 250.463C72.8178 252.002 70.2928 260.806 69.7774 263.638C67.7988 274.518 70.4968 285.305 76.8026 294.274C79.9122 298.695 83.9247 302.818 88.501 305.707C90.0921 306.71 95.3843 309.321 96.2526 310.369C97.3491 311 99.6424 311.254 100.967 311.666C107.664 313.746 114.72 314.051 121.5 312.092C124.042 311.358 126.519 310.221 129.103 309.676L129.355 309.624L129.449 309.289C130.102 308.945 130.756 308.666 131.42 308.354C141.112 303.813 148.511 294.052 152.086 284.205C147.902 279.406 143.253 274.919 138.937 270.224C138.566 269.665 138.771 268.313 138.829 267.634C138.144 266.295 138.044 264.06 137.633 262.549C137.211 260.997 135.436 257.293 135.453 256.107C125.879 253.05 107 247.355 97.2868 246.876Z" fill="#A8ACD3"/>
<path d="M113.223 256.909C109.961 256.582 106.502 257.35 103.835 259.301C100.96 261.405 99.0234 264.794 98.5011 268.303C97.9719 271.871 99.0131 275.479 101.178 278.339C103.458 281.343 106.689 282.905 110.365 283.421C113.537 283.559 116.443 283.066 119.11 281.242C119.287 281.123 119.462 280.999 119.632 280.871C119.803 280.742 119.97 280.61 120.134 280.473C120.297 280.336 120.458 280.196 120.615 280.051C120.771 279.906 120.925 279.758 121.075 279.605C121.224 279.453 121.371 279.297 121.514 279.137C121.654 278.978 121.792 278.815 121.925 278.648C122.061 278.482 122.192 278.312 122.316 278.139C122.441 277.966 122.562 277.79 122.679 277.611C122.795 277.431 122.907 277.25 123.015 277.065C123.123 276.88 123.226 276.693 123.323 276.504C123.422 276.314 123.515 276.122 123.603 275.927C123.693 275.733 123.777 275.536 123.856 275.337C123.934 275.139 124.008 274.938 124.077 274.736C124.146 274.534 124.21 274.33 124.267 274.124C124.327 273.919 124.381 273.712 124.43 273.504C124.478 273.296 124.521 273.086 124.558 272.876C125.198 269.33 124.592 265.825 122.524 262.851C120.227 259.543 117.152 257.618 113.223 256.909Z" fill="#FEFEFE"/>
<path d="M97.2868 246.876C96.6365 246.655 95.9793 246.512 95.3048 246.392C92.9112 245.964 80.2582 244.28 78.7154 245.365C77.5913 246.185 75.3568 248.635 75.0696 250.014C75.042 250.147 75.0558 250.337 75.0558 250.463C72.8178 252.002 70.2928 260.806 69.7774 263.638C67.7988 274.518 70.4968 285.305 76.8026 294.274C79.9122 298.695 83.9247 302.818 88.501 305.707C90.0921 306.71 95.3843 309.321 96.2526 310.369C97.3491 311 99.6424 311.254 100.967 311.666C107.664 313.746 114.72 314.051 121.5 312.092C124.042 311.358 126.519 310.221 129.103 309.676L129.355 309.624L129.449 309.289C130.102 308.945 130.756 308.666 131.42 308.354C141.112 303.813 148.511 294.052 152.086 284.205C147.902 279.406 143.253 274.919 138.937 270.224C138.566 269.665 138.771 268.313 138.829 267.634C138.238 268.995 138.601 270.96 138.452 272.449C138.321 273.799 138.023 275.153 137.671 276.461C135.758 283.611 131.32 290.072 124.803 293.739C124.418 293.953 124.028 294.157 123.634 294.352C123.24 294.547 122.841 294.733 122.437 294.908C122.034 295.083 121.627 295.249 121.216 295.404C120.803 295.56 120.388 295.705 119.971 295.841C119.551 295.976 119.129 296.101 118.705 296.216C118.281 296.33 117.854 296.435 117.425 296.529C116.994 296.622 116.562 296.706 116.128 296.778C115.694 296.851 115.26 296.913 114.824 296.965C114.386 297.016 113.948 297.057 113.51 297.087C113.071 297.117 112.632 297.136 112.192 297.145C111.751 297.153 111.312 297.151 110.874 297.138C110.433 297.125 109.994 297.101 109.556 297.067C109.118 297.033 108.68 296.988 108.241 296.932C107.806 296.876 107.371 296.81 106.937 296.733C106.506 296.656 106.076 296.568 105.647 296.47C105.218 296.372 104.792 296.264 104.367 296.145C97.2833 294.124 91.4688 289.611 87.951 283.115C87.8449 282.918 87.7411 282.721 87.6396 282.522C87.5382 282.323 87.439 282.123 87.3421 281.922C87.2476 281.72 87.1542 281.518 87.062 281.314C86.9697 281.11 86.881 280.905 86.7956 280.7C86.7103 280.494 86.6272 280.287 86.5466 280.079C86.4659 279.871 86.3875 279.661 86.3113 279.451C86.2352 279.241 86.1626 279.031 86.0934 278.819C86.022 278.607 85.9539 278.394 85.8894 278.181C85.8248 277.967 85.7626 277.753 85.7026 277.538C85.6426 277.323 85.5861 277.107 85.5331 276.89C85.4778 276.674 85.4258 276.457 85.3775 276.239C85.329 276.021 85.2829 275.803 85.2391 275.584C85.1953 275.365 85.155 275.145 85.1181 274.925C85.0789 274.705 85.0431 274.485 85.0108 274.264C84.9786 274.043 84.9497 273.822 84.9244 273.6C84.8967 273.378 84.8725 273.157 84.8518 272.934C84.831 272.712 84.8126 272.49 84.7964 272.267C84.7803 272.044 84.7675 271.821 84.7583 271.598C84.7491 271.375 84.7422 271.152 84.7376 270.929C84.733 270.706 84.7318 270.483 84.7341 270.26C84.7341 270.036 84.7376 269.813 84.7445 269.59C84.7514 269.367 84.7605 269.144 84.7722 268.921C84.786 268.698 84.8021 268.476 84.8206 268.253C84.8367 268.031 84.8575 267.808 84.8828 267.586C84.9059 267.364 84.9313 267.143 84.959 266.921C84.9889 266.7 85.0211 266.479 85.0557 266.259C85.0903 266.038 85.1284 265.818 85.1699 265.598C85.2091 265.379 85.2518 265.16 85.2979 264.941C85.344 264.723 85.3924 264.505 85.4431 264.288C85.4939 264.07 85.5481 263.854 85.6057 263.638C85.6611 263.422 85.7198 263.207 85.7821 262.992C85.8443 262.778 85.9089 262.564 85.9758 262.351C87.394 257.733 91.8976 249.975 96.3839 247.577C96.6365 247.288 96.972 247.094 97.2868 246.876Z" fill="#2A316C"/>
<path d="M97.2891 246.876C96.6387 246.655 95.9816 246.512 95.3071 246.392C92.9135 245.964 80.2604 244.28 78.7177 245.365C77.5935 246.185 75.3591 248.635 75.0719 250.014C75.0442 250.147 75.0581 250.337 75.0581 250.463C75.8364 250.83 83.332 249.087 84.6499 248.88C88.5378 248.271 92.4706 247.922 96.3862 247.577C96.6388 247.288 96.9743 247.094 97.2891 246.876Z" fill="#0F1632"/>
<path d="M203.285 146.212C200.904 145.532 198.09 145.17 195.628 145.269C191.349 146.125 186.642 145.486 182.63 147.509L182.207 148.543L181.422 149.82C180.45 150.691 179.52 151.348 178.308 151.849L178.427 153.164L178.508 156.389C177.284 156.917 175.948 157.267 174.756 157.821C168.792 158.853 162.504 157.978 156.48 158.354C149.566 169.446 143.24 180.929 136.422 192.091C135.184 194.119 129.048 203.372 128.882 204.623C128.242 205.366 127.422 206.425 127.218 207.399C125.73 209.176 123.787 212.298 124.004 214.675C124.008 214.732 124.015 214.789 124.022 214.846C124.229 215.457 124.437 215.678 124.942 216.071C124.707 216.483 124.547 216.57 124.675 217.032C125.156 218.757 128.166 221.521 129.746 222.368C129.21 224.434 137.623 252.037 138.826 256.843C141.676 258.823 149.885 259.739 153.384 261.701L157.313 262.995C157.346 263.039 157.38 263.083 157.412 263.128C158.519 264.658 159.006 266.644 159.97 268.286C163.547 274.378 169.513 279.113 176.549 280.331C181.024 281.105 186.561 280.623 191.182 280.632L220.777 280.646L252.434 280.589C258.124 280.592 264.156 281.027 269.805 280.419C272.331 280.147 274.739 279.1 276.808 277.641C280.099 275.319 282.3 272.007 283.498 268.198C273.567 268.139 263.636 268.132 253.706 268.178C250.679 268.186 244.263 267.766 241.676 268.42C241.393 267.445 241.361 266.275 241.248 265.259L241.117 263.83C246.679 262.325 251.21 259.2 254.537 254.457C259.266 247.715 261.501 237.254 260.036 229.193C258.793 222.349 256.179 218.94 250.668 215.112C250.297 214.899 249.885 214.459 249.552 214.176C251.269 213.923 252.98 213.638 254.686 213.32C256.392 213.001 258.091 212.649 259.783 212.264C261.475 211.88 263.16 211.463 264.836 211.012C266.512 210.562 268.178 210.08 269.836 209.565C271.493 209.051 273.14 208.504 274.776 207.925C276.412 207.347 278.037 206.737 279.65 206.095C281.262 205.453 282.862 204.78 284.448 204.076C286.034 203.373 287.607 202.638 289.165 201.874L289.881 201.904C302.016 202.1 314.146 201.912 326.28 202.217C326.343 201.433 326.435 200.745 326.197 199.979C325.524 199.545 325.077 199.606 324.308 199.567C321.254 198.787 318.314 197.286 316.15 194.96C312.781 191.341 312.319 187.455 312.487 182.729C309.757 182.796 307.026 182.812 304.295 182.78L301.782 182.778L301.195 182.476C301.374 181.136 302.718 179.357 303.224 177.964C304.973 173.141 305.805 168.291 306.11 163.178L304.497 163.236C291.326 164.258 278.01 164.812 264.805 164.176C262.437 164.195 260.941 163.934 258.988 162.498C258.199 161.102 257.777 159.583 257.39 158.038L256.971 156.889C256.232 155.147 255.96 153.099 255.585 151.25L255.386 151.066C251.709 152.446 248.082 153.947 244.303 155.034C234.604 157.824 223.641 158.636 213.59 158.244C210.944 158.141 207.257 158.257 204.779 157.245C204.722 157.221 204.668 157.193 204.612 157.167C203.524 153.846 203.423 149.687 203.285 146.212Z" fill="#E3EFF3"/>
<path d="M181.42 149.82C180.447 150.691 179.518 151.348 178.305 151.849L178.424 153.164L178.505 156.389C180.33 155.581 182.352 155.427 184.312 155.202C185.192 155.712 186.047 156.218 187 156.581L186.393 155.908L186.514 155.228C184.624 154.437 183.806 153.387 182.85 151.66C182.133 151.273 181.77 150.519 181.42 149.82Z" fill="#EC8224"/>
<path d="M184.312 155.203C182.387 153.892 180.717 153.46 178.425 153.165L178.506 156.39C180.33 155.582 182.352 155.428 184.312 155.203Z" fill="#FEFEFE"/>
<path d="M203.282 146.212C200.901 145.532 198.088 145.17 195.626 145.269C191.346 146.125 186.64 145.486 182.628 147.509L182.205 148.543L181.42 149.82C181.77 150.519 182.133 151.273 182.85 151.66C183.806 153.387 184.624 154.437 186.514 155.228L186.393 155.908L187 156.581C191.614 158.233 196.924 158.414 201.682 157.3C202.656 157.107 203.622 157.149 204.609 157.167C203.521 153.846 203.421 149.687 203.282 146.212Z" fill="#F2BA87"/>
<path d="M191.68 152.153C191.285 151.444 190.881 150.672 190.103 150.331C189.056 149.872 187.342 150.616 186.352 151.049C185.117 151.59 184.184 151.638 182.849 151.661C183.805 153.388 184.623 154.438 186.513 155.229C187.62 155.423 188.815 155.544 189.837 154.982C190.957 154.365 191.316 153.29 191.68 152.153Z" fill="#0F1632"/>
<path d="M191.679 152.153C191.315 153.29 190.956 154.366 189.836 154.982C188.814 155.544 187.619 155.423 186.512 155.229L186.391 155.909L186.998 156.582C191.612 158.234 196.922 158.415 201.68 157.301C201.554 156.874 201.15 156.862 200.743 156.761C197.23 155.888 194.035 155.109 191.679 152.153Z" fill="#E38451"/>
<path d="M209.452 163.756C206.185 164.607 202.913 165.438 199.635 166.25C192.611 168.012 186.197 169.736 182.228 176.391C180.601 179.119 179.505 182.638 179.51 185.83C179.52 191.042 181.45 196.528 182.177 201.716C183.78 213.145 185.128 224.606 186.83 236.022C187.492 240.46 187.921 245.303 189.027 249.644C189.186 250.267 189.278 250.852 189.861 251.222C190.613 251.699 192.131 251.673 193.009 251.603C193.034 253.729 193.272 255.817 193.507 257.927C197.476 258.517 201.594 258.205 205.599 258.333C206.407 258.603 206.881 258.75 207.282 259.583C208.203 261.5 208.087 264.65 208.049 266.757L208.217 267.049C209.165 267.504 213.585 264.028 225.863 260.075C225.023 257.97 224.355 255.811 223.859 253.599C223.125 253.659 222.231 253.814 221.508 253.682C218.989 253.221 212.313 228.869 210.237 225.459C209.37 220.392 207.022 215.222 205.417 210.332C204.271 206.822 203.181 203.295 202.147 199.75C200.314 193.551 197.616 185.913 200.812 179.732C202.297 176.86 205.406 174.679 208.444 173.693C209.159 170.46 209.252 167.051 209.452 163.756Z" fill="#046C56"/>
<path d="M205.753 251.264C201.738 251.542 196.765 251.051 193.011 251.603C193.036 253.729 193.274 255.817 193.509 257.927C197.478 258.517 201.596 258.205 205.601 258.333C205.751 255.965 205.807 253.636 205.753 251.264Z" fill="#F2BA87"/>
<path d="M223.859 253.6C223.125 253.659 222.231 253.815 221.508 253.682C218.989 253.221 212.313 228.87 210.237 225.46C210.407 229.436 211.051 247.672 210.026 250.084C208.903 251.267 207.27 251.162 205.751 251.264C205.806 253.637 205.749 255.966 205.599 258.334C206.407 258.604 206.881 258.75 207.282 259.583C208.203 261.501 208.087 264.651 208.049 266.758L208.217 267.049C209.165 267.504 213.585 264.029 225.863 260.075C225.023 257.97 224.355 255.812 223.859 253.6Z" fill="#E3EFF3"/>
<path d="M174.75 157.822C168.786 158.854 162.498 157.978 156.474 158.355C149.561 169.447 143.234 180.93 136.417 192.092C135.178 194.12 129.042 203.373 128.876 204.624C128.236 205.367 127.416 206.426 127.212 207.4C125.725 209.177 123.781 212.298 123.999 214.676C124.002 214.733 124.009 214.79 124.016 214.847C124.224 215.458 124.431 215.679 124.936 216.072C124.701 216.484 124.542 216.571 124.67 217.032C125.151 218.758 128.16 221.522 129.741 222.369C129.204 224.435 137.617 252.038 138.821 256.844C141.671 258.823 149.879 259.74 153.379 261.702L157.307 262.996C157.34 263.04 157.374 263.084 157.407 263.128C158.513 264.659 159.001 266.645 159.965 268.287C163.541 274.379 169.507 279.114 176.543 280.331C181.018 281.106 186.556 280.624 191.177 280.633L220.771 280.647L252.428 280.59C258.118 280.593 264.15 281.028 269.8 280.42C272.325 280.148 274.733 279.101 276.803 277.642C280.094 275.32 282.294 272.008 283.492 268.199C273.561 268.14 263.631 268.133 253.7 268.179C250.673 268.187 244.258 267.767 241.67 268.421C241.387 267.446 241.356 266.276 241.242 265.26L241.111 263.831C240.999 263.111 240.886 262.39 240.739 261.677C240.56 260.815 240.296 260.315 239.552 259.822C238.629 258.898 238.615 253.99 238.358 252.481L234.831 252.653C231.269 252.765 227.363 252.972 223.855 253.6C224.351 255.812 225.019 257.97 225.859 260.075C213.581 264.029 209.161 267.504 208.214 267.049L208.045 266.758C208.083 264.651 208.199 261.501 207.278 259.583C206.877 258.75 206.403 258.604 205.595 258.334C201.59 258.205 197.472 258.518 193.503 257.928C187.971 259.781 177.879 264.33 173.4 268.105C171.726 266.592 169.34 266.854 167.474 263.745C165.407 260.303 154.085 233.864 153.99 231.072C153.802 225.5 157.389 216.964 159.008 211.4L168.435 179.074C170.548 172.05 173.038 164.942 174.75 157.822Z" fill="#F8B52F"/>
<path d="M193.506 257.928C187.975 259.781 177.882 264.33 173.403 268.105L173.74 268.763C176.086 269.437 179.474 268.996 181.944 268.992L197.622 268.968C200.648 268.963 203.74 268.826 206.755 269.056C207.656 268.279 207.939 267.931 208.048 266.758C208.086 264.651 208.203 261.501 207.281 259.583C206.881 258.75 206.406 258.603 205.598 258.333C201.594 258.205 197.475 258.518 193.506 257.928Z" fill="#0F1632"/>
<path d="M238.359 252.48L234.833 252.653C231.27 252.764 227.364 252.971 223.857 253.6C224.352 255.812 225.02 257.97 225.861 260.075C213.582 264.028 209.162 267.504 208.215 267.049L208.047 266.757C207.937 267.931 207.654 268.279 206.753 269.055C206.907 269.189 206.9 269.198 207.117 269.301C208.131 269.781 240.362 269.787 241.143 269.385C241.522 269.189 241.538 268.808 241.672 268.42C241.388 267.446 241.357 266.276 241.244 265.26L241.113 263.83C241 263.111 240.888 262.389 240.74 261.676C240.562 260.814 240.298 260.315 239.553 259.822C238.63 258.897 238.617 253.99 238.359 252.48Z" fill="#2A316C"/>
<path d="M238.36 252.48L234.834 252.653C231.271 252.764 227.366 252.971 223.858 253.6C224.353 255.812 225.021 257.97 225.862 260.075C230.41 259.68 235.011 260.241 239.555 259.822C238.632 258.897 238.618 253.99 238.36 252.48Z" fill="#F2BA87"/>
<path d="M124.938 216.071C124.703 216.483 124.544 216.57 124.672 217.032C125.152 218.757 128.162 221.521 129.742 222.368C129.206 224.434 137.619 252.037 138.822 256.843C141.673 258.823 149.881 259.739 153.381 261.701L157.309 262.995C156.934 260.918 142.43 230.986 140.707 229.123C137.961 226.152 125.823 218.624 124.938 216.071Z" fill="#B30909"/>
<path d="M256.97 156.89C253.039 157.178 245.429 157.32 241.956 158.37C238.359 158.468 234.613 159.203 231.053 159.763C223.817 160.896 216.617 162.228 209.454 163.756C209.254 167.051 209.16 170.46 208.445 173.694C205.408 174.679 202.298 176.861 200.814 179.732C197.618 185.914 200.316 193.551 202.149 199.751C203.183 203.295 204.273 206.822 205.419 210.332C207.024 215.222 209.372 220.392 210.239 225.46C212.315 228.87 218.991 253.221 221.51 253.682C222.232 253.814 223.127 253.659 223.861 253.6C227.369 252.971 231.275 252.764 234.837 252.653L238.363 252.481C238.621 253.99 238.635 258.897 239.558 259.822C240.302 260.315 240.566 260.814 240.745 261.677C240.892 262.389 241.005 263.111 241.117 263.83C246.679 262.325 251.211 259.201 254.537 254.458C259.266 247.715 261.501 237.255 260.036 229.194C258.793 222.349 256.179 218.94 250.668 215.112C250.297 214.899 249.885 214.46 249.552 214.176C251.269 213.924 252.98 213.639 254.686 213.32C256.392 213.001 258.091 212.65 259.783 212.265C261.475 211.88 263.16 211.463 264.836 211.013C266.512 210.563 268.178 210.081 269.836 209.566C271.493 209.051 273.14 208.505 274.776 207.926C276.412 207.347 278.037 206.737 279.65 206.095C281.262 205.454 282.862 204.781 284.448 204.077C286.034 203.373 287.607 202.639 289.165 201.874L289.881 201.904C302.016 202.101 314.146 201.913 326.28 202.218C326.343 201.433 326.435 200.746 326.197 199.98C325.524 199.546 325.077 199.606 324.308 199.568C321.254 198.788 318.314 197.286 316.15 194.961C312.781 191.342 312.319 187.456 312.487 182.73C309.757 182.796 307.026 182.813 304.295 182.78L301.782 182.779L301.195 182.477C301.374 181.137 302.718 179.357 303.224 177.965C304.973 173.141 305.805 168.291 306.11 163.178L304.497 163.237C291.326 164.259 278.01 164.812 264.805 164.177C262.437 164.195 260.941 163.935 258.988 162.499C258.199 161.103 257.777 159.584 257.39 158.038L256.97 156.89Z" fill="#30BE9F"/>
<path d="M217.121 187.273C220.845 190.975 225.799 194.418 230.355 197.039C230.351 196.967 230.355 196.894 230.341 196.822C229.978 194.972 225.698 192.673 224.224 191.46C221.839 190.103 219.618 188.413 217.121 187.273Z" fill="#123B41"/>
<path d="M306.109 163.178L304.496 163.236C295.665 177.386 284.354 184.758 268.175 188.497C258.129 190.819 247.516 191.842 237.204 191.806C234.464 191.8 231.725 191.738 228.987 191.621C227.467 191.56 225.73 191.316 224.228 191.459C225.701 192.673 229.982 194.971 230.344 196.822C230.358 196.893 230.354 196.966 230.359 197.039C231.003 197.032 231.61 196.984 232.223 197.212C236.06 197.817 239.774 198.229 243.656 198.329L243.672 201.53L243.778 201.58L243.814 198.334C258.033 198.592 274.06 198.923 287.374 193.276C290.369 192.006 293.221 190.316 295.667 188.165C296.446 187.48 300.254 183.06 300.692 182.872C300.923 182.772 301.508 182.802 301.781 182.778L301.194 182.476C301.373 181.136 302.718 179.357 303.223 177.964C304.973 173.141 305.804 168.291 306.109 163.178Z" fill="#046C56"/>
<path d="M256.967 156.89C253.035 157.178 245.426 157.32 241.952 158.37C238.355 158.468 234.609 159.203 231.049 159.763C223.813 160.896 216.613 162.228 209.45 163.756C209.25 167.051 209.157 170.46 208.442 173.694C205.404 174.679 202.295 176.861 200.81 179.732C197.614 185.914 200.312 193.551 202.145 199.751C203.179 203.295 204.269 206.822 205.415 210.332C207.02 215.222 209.368 220.392 210.235 225.46C212.311 228.87 218.987 253.221 221.506 253.682C222.229 253.814 223.123 253.659 223.857 253.6C227.365 252.971 231.271 252.764 234.833 252.653C233.506 251.426 232.213 250.192 231.044 248.809C228.663 245.991 226.665 242.775 225.031 239.472C220.456 230.223 217.415 220.321 213.594 210.763C211.049 204.398 207.658 198.212 205.55 191.696C204.754 189.239 204.069 186.588 204.301 183.994C204.74 179.096 206.743 176.095 210.443 172.979C211.925 172.619 213.574 171.67 214.999 171.081C217.049 170.234 219.158 169.632 221.312 169.115C233.764 166.128 246.383 164.596 258.984 162.499C258.195 161.103 257.773 159.584 257.386 158.038L256.967 156.89Z" fill="#169B7E"/>
<path d="M256.967 156.89C253.036 157.178 245.427 157.32 241.953 158.37C242.749 158.935 255.043 158.063 257.387 158.038L256.967 156.89Z" fill="#1C9A72"/>
<path d="M232.219 197.212C231.962 198.273 234.098 206.479 234.466 208.204C236.615 218.284 238.58 228.4 240.359 238.552C241.007 242.292 242.062 246.375 242.175 250.138C242.199 250.947 242.177 251.218 241.678 251.857C240.673 252.385 239.477 252.429 238.359 252.48C238.616 253.99 238.63 258.897 239.553 259.822C240.297 260.314 240.562 260.814 240.74 261.676C240.887 262.389 241 263.111 241.112 263.83C246.675 262.325 251.206 259.201 254.532 254.458C259.262 247.715 261.496 237.255 260.032 229.194C258.789 222.349 256.175 218.94 250.663 215.112C250.292 214.899 249.881 214.46 249.547 214.176C248.479 213.736 247.499 212.998 246.684 212.182C243.724 209.217 243.637 205.46 243.668 201.531L243.652 198.33C239.769 198.23 236.056 197.817 232.219 197.212Z" fill="#E3EFF3"/>
<path d="M304.295 182.781L301.781 182.779C301.508 182.803 300.924 182.773 300.693 182.873C300.255 183.061 296.446 187.481 295.668 188.166C293.221 190.317 290.369 192.007 287.374 193.277C274.06 198.924 258.033 198.593 243.814 198.335L243.779 201.581L243.673 201.532C243.641 205.461 243.728 209.218 246.689 212.183C247.504 212.999 248.483 213.736 249.552 214.177C251.269 213.925 252.98 213.639 254.686 213.321C256.392 213.002 258.091 212.65 259.783 212.266C261.475 211.881 263.16 211.464 264.836 211.014C266.512 210.564 268.178 210.081 269.836 209.567C271.493 209.052 273.14 208.505 274.776 207.927C276.412 207.348 278.037 206.738 279.65 206.096C281.262 205.454 282.862 204.781 284.448 204.078C286.034 203.374 287.607 202.64 289.165 201.875L289.881 201.905C302.016 202.101 314.146 201.913 326.28 202.218C326.343 201.434 326.435 200.746 326.197 199.981C325.524 199.546 325.077 199.607 324.308 199.569C321.254 198.788 318.314 197.287 316.15 194.961C312.781 191.342 312.319 187.456 312.487 182.73C309.756 182.797 307.026 182.814 304.295 182.781Z" fill="#0F1632"/>
<path d="M312.484 182.73C309.753 182.797 307.023 182.814 304.292 182.781C302.615 186.799 300.02 191.269 297.459 194.79C296.57 196.012 293.586 198.686 293.315 199.879C297.384 199.558 301.512 199.704 305.59 199.742C311.827 199.8 318.073 199.863 324.305 199.569C321.251 198.788 318.31 197.287 316.146 194.961C312.778 191.342 312.316 187.456 312.484 182.73Z" fill="#2A316C"/>
<path d="M243.778 201.581L243.672 201.531C243.64 205.46 243.728 209.218 246.688 212.183C247.503 212.998 248.482 213.736 249.551 214.176C251.268 213.924 252.979 213.639 254.685 213.32C256.391 213.002 258.09 212.65 259.783 212.265C261.475 211.881 263.159 211.463 264.835 211.013C266.511 210.563 268.178 210.081 269.835 209.566C271.492 209.051 273.139 208.505 274.775 207.926C276.412 207.348 278.036 206.737 279.649 206.095C281.261 205.454 282.861 204.781 284.447 204.077C286.034 203.373 287.606 202.639 289.164 201.874C285.268 201.409 280.968 201.741 277.024 201.743L254.269 201.739C250.956 201.748 247 202.226 243.778 201.581Z" fill="#D2210B"/>
<path fill-rule="evenodd" clip-rule="evenodd" d="M401.195 149.218C401.195 148.542 401.743 147.995 402.418 147.995H427.735C428.41 147.995 428.957 148.542 428.957 149.218V157.776C428.957 158.451 428.41 158.998 427.735 158.998H402.418C401.743 158.998 401.195 158.451 401.195 157.776V149.218ZM403.578 149.753C403.578 149.964 403.407 150.135 403.196 150.135C402.985 150.135 402.814 149.964 402.814 149.753C402.814 149.542 402.985 149.371 403.196 149.371C403.407 149.371 403.578 149.542 403.578 149.753ZM426.75 150.135C426.961 150.135 427.132 149.964 427.132 149.753C427.132 149.542 426.961 149.371 426.75 149.371C426.539 149.371 426.368 149.542 426.368 149.753C426.368 149.964 426.539 150.135 426.75 150.135Z" fill="#EC8224"/>
<path fill-rule="evenodd" clip-rule="evenodd" d="M426.876 148.832H402.984C402.489 148.832 402.088 149.235 402.088 149.732V157.231C402.088 157.728 402.489 158.131 402.984 158.131H426.876C427.372 158.131 427.773 157.728 427.773 157.231V149.732C427.773 149.235 427.372 148.832 426.876 148.832ZM402.984 148.532C402.324 148.532 401.789 149.069 401.789 149.732V157.231C401.789 157.894 402.324 158.431 402.984 158.431H426.876C427.537 158.431 428.072 157.894 428.072 157.231V149.732C428.072 149.069 427.537 148.532 426.876 148.532H402.984Z" fill="#F8B52F"/>
<path d="M404.874 155.426V152.266H405.512V153.51H406.762V152.266H407.4V155.426H406.762V154.044H405.512V155.426H404.874ZM407.9 154.398L408.521 154.337C408.559 154.546 408.634 154.699 408.747 154.796C408.862 154.894 409.017 154.943 409.211 154.943C409.416 154.943 409.571 154.9 409.674 154.814C409.779 154.726 409.832 154.624 409.832 154.508C409.832 154.433 409.809 154.37 409.765 154.318C409.722 154.265 409.646 154.219 409.536 154.18C409.462 154.154 409.291 154.108 409.026 154.042C408.684 153.957 408.444 153.853 408.306 153.729C408.112 153.556 408.015 153.344 408.015 153.094C408.015 152.933 408.06 152.782 408.15 152.643C408.242 152.502 408.374 152.395 408.545 152.322C408.717 152.249 408.925 152.212 409.168 152.212C409.564 152.212 409.863 152.299 410.062 152.473C410.264 152.647 410.369 152.879 410.379 153.169L409.741 153.197C409.714 153.035 409.655 152.918 409.564 152.848C409.475 152.776 409.341 152.74 409.161 152.74C408.976 152.74 408.831 152.778 408.726 152.854C408.658 152.903 408.625 152.968 408.625 153.05C408.625 153.125 408.656 153.189 408.719 153.242C408.8 153.31 408.995 153.38 409.306 153.453C409.616 153.527 409.845 153.603 409.993 153.682C410.143 153.76 410.259 153.867 410.343 154.003C410.427 154.138 410.47 154.306 410.47 154.505C410.47 154.686 410.419 154.856 410.319 155.014C410.218 155.172 410.076 155.29 409.892 155.368C409.708 155.444 409.479 155.482 409.204 155.482C408.805 155.482 408.498 155.39 408.284 155.206C408.07 155.021 407.942 154.751 407.9 154.398ZM411.009 155.426V152.266H412.351C412.689 152.266 412.934 152.295 413.087 152.352C413.24 152.408 413.363 152.509 413.455 152.654C413.547 152.799 413.593 152.965 413.593 153.152C413.593 153.389 413.523 153.585 413.384 153.74C413.245 153.894 413.036 153.991 412.759 154.031C412.897 154.112 413.01 154.2 413.099 154.296C413.19 154.393 413.311 154.564 413.464 154.809L413.85 155.426H413.087L412.625 154.738C412.461 154.492 412.349 154.338 412.289 154.275C412.229 154.21 412.165 154.166 412.097 154.143C412.03 154.119 411.923 154.107 411.776 154.107H411.647V155.426H411.009ZM411.647 153.602H412.119C412.425 153.602 412.616 153.589 412.692 153.563C412.768 153.538 412.828 153.493 412.871 153.43C412.914 153.367 412.936 153.288 412.936 153.193C412.936 153.086 412.907 153.001 412.849 152.936C412.793 152.87 412.714 152.828 412.61 152.811C412.558 152.804 412.403 152.8 412.145 152.8H411.647V153.602ZM414.197 155.426V152.266H415.22C415.608 152.266 415.861 152.282 415.979 152.313C416.16 152.361 416.312 152.464 416.434 152.624C416.556 152.782 416.617 152.986 416.617 153.238C416.617 153.432 416.582 153.595 416.512 153.727C416.441 153.859 416.351 153.964 416.242 154.04C416.134 154.115 416.024 154.164 415.912 154.189C415.76 154.219 415.54 154.234 415.251 154.234H414.835V155.426H414.197ZM414.835 152.8V153.697H415.184C415.435 153.697 415.603 153.681 415.688 153.647C415.773 153.614 415.839 153.563 415.887 153.492C415.935 153.422 415.96 153.34 415.96 153.247C415.96 153.132 415.926 153.037 415.859 152.962C415.791 152.887 415.705 152.841 415.602 152.822C415.526 152.808 415.373 152.8 415.143 152.8H414.835ZM417.068 154.583V153.977H418.258V154.583H417.068ZM419.322 155.426V152.8H418.385V152.266H420.896V152.8H419.96V155.426H419.322ZM421.672 153.865C421.672 153.543 421.721 153.273 421.817 153.055C421.889 152.894 421.986 152.749 422.11 152.621C422.235 152.494 422.372 152.399 422.52 152.337C422.716 152.254 422.944 152.212 423.201 152.212C423.666 152.212 424.039 152.356 424.317 152.645C424.598 152.934 424.738 153.336 424.738 153.85C424.738 154.36 424.599 154.76 424.322 155.049C424.044 155.336 423.674 155.48 423.209 155.48C422.739 155.48 422.366 155.337 422.088 155.051C421.811 154.763 421.672 154.368 421.672 153.865ZM422.33 153.844C422.33 154.201 422.413 154.473 422.578 154.658C422.743 154.842 422.953 154.934 423.207 154.934C423.462 154.934 423.67 154.843 423.832 154.661C423.996 154.477 424.078 154.201 424.078 153.835C424.078 153.473 423.998 153.203 423.839 153.025C423.681 152.846 423.47 152.757 423.207 152.757C422.944 152.757 422.732 152.848 422.571 153.029C422.41 153.208 422.33 153.48 422.33 153.844Z" fill="#F8B52F"/>
<path d="M428.657 148.683L425.762 148.511C426.156 146.988 426.504 146.528 427.367 146.497C428.153 146.497 428.606 146.96 428.657 148.683Z" fill="#EC8224"/>
<path d="M417.391 145.239C418.096 146.096 418.354 146.578 418.366 147.442C421.128 147.664 422.592 147.855 425.006 148.355C426.139 144.799 428.028 144.893 428.877 147.977L428.688 144.39L417.391 145.239Z" fill="#EC8224"/>
<path d="M417.487 148.212H412.137C412.684 146.652 413.584 145.852 414.812 145.852C416.291 145.948 417.015 146.481 417.487 148.212Z" fill="#EC8224"/>
<path fill-rule="evenodd" clip-rule="evenodd" d="M417.162 143.013L424.589 143.088C423.709 142.38 423.008 141.853 422.288 141.479C421.412 141.023 420.499 140.789 419.191 140.771L417.162 143.013ZM419.025 140.393L416.6 143.071C416.491 143.192 416.575 143.385 416.738 143.386L425.665 143.477C425.639 143.455 425.613 143.434 425.587 143.413C425.453 143.304 425.323 143.197 425.196 143.094C422.932 141.25 421.739 140.393 419.025 140.393Z" fill="#EC8224"/>
<path fill-rule="evenodd" clip-rule="evenodd" d="M412.731 145.114C411.885 146.019 410.969 147.111 410.969 148.37C407.306 148.737 404.323 147.989 401.245 148.873C400.002 145.208 401.764 143.572 407.02 143.289L414.289 143.068C413.709 143.207 413.153 143.334 412.624 143.455C409.199 144.237 406.908 144.76 406.327 146.593L410.969 146.404L412.731 145.114ZM402.032 146.404H403.479C403.49 145.52 403.354 145.26 402.85 145.24C402.491 145.293 402.309 145.511 402.032 146.404Z" fill="#EC8224"/>
<path d="M415.441 142.753L407.668 142.847C412.142 139.686 414.401 139.918 418.462 140.078C416.988 140.945 416.401 141.576 415.441 142.753Z" fill="#EC8224"/>
<path d="M433.253 140.865C432.1 142.978 431.271 143.983 429.791 145.775C429.287 143.414 428.343 143.603 426.738 143.414C429.582 142.731 430.999 142.163 433.253 140.865Z" fill="#EC8224"/>
<path d="M397.001 140.865C398.154 142.978 398.983 143.983 400.463 145.775C400.967 143.414 401.911 143.603 403.516 143.414C400.672 142.731 399.255 142.163 397.001 140.865Z" fill="#EC8224"/>
<g clip-path="url(#clip0_2307_5840)">
<path fill-rule="evenodd" clip-rule="evenodd" d="M345.195 112.218C345.195 111.542 345.743 110.995 346.418 110.995H371.735C372.41 110.995 372.957 111.542 372.957 112.218V120.776C372.957 121.451 372.41 121.998 371.735 121.998H346.418C345.743 121.998 345.195 121.451 345.195 120.776V112.218ZM347.579 112.753C347.579 112.964 347.408 113.135 347.197 113.135C346.986 113.135 346.814 112.964 346.814 112.753C346.814 112.542 346.986 112.371 347.197 112.371C347.408 112.371 347.579 112.542 347.579 112.753ZM370.749 113.135C370.96 113.135 371.131 112.964 371.131 112.753C371.131 112.542 370.96 112.371 370.749 112.371C370.538 112.371 370.367 112.542 370.367 112.753C370.367 112.964 370.538 113.135 370.749 113.135Z" fill="#F2BA87"/>
<path fill-rule="evenodd" clip-rule="evenodd" d="M370.876 111.832H346.984C346.489 111.832 346.088 112.235 346.088 112.732V120.231C346.088 120.728 346.489 121.131 346.984 121.131H370.876C371.372 121.131 371.773 120.728 371.773 120.231V112.732C371.773 112.235 371.372 111.832 370.876 111.832ZM346.984 111.532C346.324 111.532 345.789 112.069 345.789 112.732V120.231C345.789 120.894 346.324 121.431 346.984 121.431H370.876C371.537 121.431 372.072 120.894 372.072 120.231V112.732C372.072 112.069 371.537 111.532 370.876 111.532H346.984Z" fill="#FCE1B7"/>
<path d="M348.874 118.426V115.266H349.512V116.51H350.762V115.266H351.4V118.426H350.762V117.044H349.512V118.426H348.874ZM351.9 117.398L352.521 117.337C352.559 117.546 352.634 117.699 352.747 117.796C352.862 117.894 353.017 117.943 353.211 117.943C353.416 117.943 353.571 117.9 353.674 117.814C353.779 117.726 353.832 117.624 353.832 117.508C353.832 117.433 353.809 117.37 353.765 117.318C353.722 117.265 353.646 117.219 353.536 117.18C353.462 117.154 353.291 117.108 353.026 117.042C352.684 116.957 352.444 116.853 352.306 116.729C352.112 116.556 352.015 116.344 352.015 116.094C352.015 115.933 352.06 115.782 352.15 115.643C352.242 115.502 352.374 115.395 352.545 115.322C352.717 115.249 352.925 115.212 353.168 115.212C353.564 115.212 353.863 115.299 354.062 115.473C354.264 115.647 354.369 115.879 354.379 116.169L353.741 116.197C353.714 116.035 353.655 115.918 353.564 115.848C353.475 115.776 353.341 115.74 353.161 115.74C352.976 115.74 352.831 115.778 352.726 115.854C352.658 115.903 352.625 115.968 352.625 116.05C352.625 116.125 352.656 116.189 352.719 116.242C352.8 116.31 352.995 116.38 353.306 116.453C353.616 116.527 353.845 116.603 353.993 116.682C354.143 116.76 354.259 116.867 354.343 117.003C354.427 117.138 354.47 117.306 354.47 117.505C354.47 117.686 354.419 117.856 354.319 118.014C354.218 118.172 354.076 118.29 353.892 118.368C353.708 118.444 353.479 118.482 353.204 118.482C352.805 118.482 352.498 118.39 352.284 118.206C352.07 118.021 351.942 117.751 351.9 117.398ZM355.009 118.426V115.266H356.351C356.689 115.266 356.934 115.295 357.087 115.352C357.24 115.408 357.363 115.509 357.455 115.654C357.547 115.799 357.593 115.965 357.593 116.152C357.593 116.389 357.523 116.585 357.384 116.74C357.245 116.894 357.036 116.991 356.759 117.031C356.897 117.112 357.01 117.2 357.099 117.296C357.19 117.393 357.311 117.564 357.464 117.809L357.85 118.426H357.087L356.625 117.738C356.461 117.492 356.349 117.338 356.289 117.275C356.229 117.21 356.165 117.166 356.097 117.143C356.03 117.119 355.923 117.107 355.776 117.107H355.647V118.426H355.009ZM355.647 116.602H356.119C356.425 116.602 356.616 116.589 356.692 116.563C356.768 116.538 356.828 116.493 356.871 116.43C356.914 116.367 356.936 116.288 356.936 116.193C356.936 116.086 356.907 116.001 356.849 115.936C356.793 115.87 356.714 115.828 356.61 115.811C356.558 115.804 356.403 115.8 356.145 115.8H355.647V116.602ZM358.197 118.426V115.266H359.22C359.608 115.266 359.861 115.282 359.979 115.313C360.16 115.361 360.312 115.464 360.434 115.624C360.556 115.782 360.617 115.986 360.617 116.238C360.617 116.432 360.582 116.595 360.512 116.727C360.441 116.859 360.351 116.964 360.242 117.04C360.134 117.115 360.024 117.164 359.912 117.189C359.76 117.219 359.54 117.234 359.251 117.234H358.835V118.426H358.197ZM358.835 115.8V116.697H359.184C359.435 116.697 359.603 116.681 359.688 116.647C359.773 116.614 359.839 116.563 359.887 116.492C359.935 116.422 359.96 116.34 359.96 116.247C359.96 116.132 359.926 116.037 359.859 115.962C359.791 115.887 359.705 115.841 359.602 115.822C359.526 115.808 359.373 115.8 359.143 115.8H358.835ZM361.068 117.583V116.977H362.258V117.583H361.068ZM363.322 118.426V115.8H362.385V115.266H364.896V115.8H363.96V118.426H363.322ZM365.672 116.865C365.672 116.543 365.721 116.273 365.817 116.055C365.889 115.894 365.986 115.749 366.11 115.621C366.235 115.494 366.372 115.399 366.52 115.337C366.716 115.254 366.944 115.212 367.201 115.212C367.666 115.212 368.039 115.356 368.317 115.645C368.598 115.934 368.738 116.336 368.738 116.85C368.738 117.36 368.599 117.76 368.322 118.049C368.044 118.336 367.674 118.48 367.209 118.48C366.739 118.48 366.366 118.337 366.088 118.051C365.811 117.763 365.672 117.368 365.672 116.865ZM366.33 116.844C366.33 117.201 366.413 117.473 366.578 117.658C366.743 117.842 366.953 117.934 367.207 117.934C367.462 117.934 367.67 117.843 367.832 117.661C367.996 117.477 368.078 117.201 368.078 116.835C368.078 116.473 367.998 116.203 367.839 116.025C367.681 115.846 367.47 115.757 367.207 115.757C366.944 115.757 366.732 115.848 366.571 116.029C366.41 116.208 366.33 116.48 366.33 116.844Z" fill="#FCE1B7"/>
<path d="M361.395 108.239C362.1 109.096 362.358 109.578 362.37 110.442C365.132 110.664 366.596 110.855 369.01 111.355C370.143 107.799 372.031 107.893 372.881 110.977L372.692 107.39L361.395 108.239Z" fill="#F2BA87"/>
<path d="M361.487 111.212H356.137C356.684 109.652 357.584 108.852 358.812 108.852C360.291 108.948 361.015 109.481 361.487 111.212Z" fill="#F2BA87"/>
<path fill-rule="evenodd" clip-rule="evenodd" d="M361.166 106.013L368.593 106.088C367.713 105.38 367.012 104.853 366.292 104.479C365.416 104.023 364.503 103.789 363.195 103.771L361.166 106.013ZM363.029 103.393L360.604 106.071C360.495 106.192 360.579 106.385 360.742 106.386L369.669 106.477C369.643 106.455 369.617 106.434 369.591 106.413C369.457 106.304 369.327 106.197 369.2 106.094C366.936 104.25 365.743 103.393 363.029 103.393Z" fill="#F2BA87"/>
<path fill-rule="evenodd" clip-rule="evenodd" d="M356.735 108.114C355.889 109.019 354.973 110.111 354.973 111.37C351.31 111.737 348.327 110.989 345.249 111.873C344.005 108.208 345.768 106.572 351.024 106.289L358.293 106.068C357.713 106.207 357.157 106.334 356.628 106.455C353.203 107.237 350.911 107.76 350.331 109.593L354.973 109.404L356.735 108.114ZM346.035 109.404H347.483C347.494 108.52 347.358 108.26 346.854 108.24C346.495 108.293 346.313 108.511 346.035 109.404Z" fill="#F2BA87"/>
<path d="M359.441 105.753L351.668 105.847C356.142 102.686 358.401 102.918 362.462 103.078C360.988 103.945 360.401 104.576 359.441 105.753Z" fill="#F2BA87"/>
<path d="M341.001 103.865C342.154 105.978 342.983 106.983 344.463 108.775C344.967 106.414 345.911 106.603 347.516 106.414C344.672 105.731 343.255 105.163 341.001 103.865Z" fill="#F2BA87"/>
</g>
<g clip-path="url(#clip1_2307_5840)">
<path d="M372.657 111.683L369.762 111.511C370.156 109.988 370.504 109.528 371.367 109.497C372.153 109.497 372.606 109.96 372.657 111.683Z" fill="#F2BA87"/>
<path d="M361.395 108.239C362.1 109.096 362.358 109.578 362.37 110.442C365.132 110.664 366.596 110.855 369.01 111.355C370.143 107.799 372.031 107.893 372.881 110.977L372.692 107.39L361.395 108.239Z" fill="#F2BA87"/>
<path d="M361.487 111.212H356.137C356.684 109.652 357.584 108.852 358.812 108.852C360.291 108.948 361.015 109.481 361.487 111.212Z" fill="#F2BA87"/>
<path fill-rule="evenodd" clip-rule="evenodd" d="M361.166 106.013L368.593 106.088C367.713 105.38 367.012 104.853 366.292 104.479C365.416 104.023 364.503 103.789 363.195 103.771L361.166 106.013ZM363.029 103.393L360.604 106.071C360.495 106.192 360.579 106.385 360.742 106.386L369.669 106.477C369.643 106.455 369.617 106.434 369.591 106.413C369.457 106.304 369.327 106.197 369.2 106.094C366.936 104.25 365.743 103.393 363.029 103.393Z" fill="#F2BA87"/>
<path fill-rule="evenodd" clip-rule="evenodd" d="M356.735 108.114C355.889 109.019 354.973 110.111 354.973 111.37C351.31 111.737 348.327 110.989 345.249 111.873C344.005 108.208 345.768 106.572 351.024 106.289L358.293 106.068C357.713 106.207 357.157 106.334 356.628 106.455C353.203 107.237 350.911 107.76 350.331 109.593L354.973 109.404L356.735 108.114ZM346.035 109.404H347.483C347.494 108.52 347.358 108.26 346.854 108.24C346.495 108.293 346.313 108.511 346.035 109.404Z" fill="#F2BA87"/>
<path d="M359.441 105.753L351.668 105.847C356.142 102.686 358.401 102.918 362.462 103.078C360.988 103.945 360.401 104.576 359.441 105.753Z" fill="#F2BA87"/>
<path d="M377.253 103.865C376.1 105.978 375.271 106.983 373.791 108.775C373.287 106.414 372.343 106.603 370.738 106.414C373.582 105.731 374.999 105.163 377.253 103.865Z" fill="#F2BA87"/>
<path d="M341.001 103.865C342.154 105.978 342.983 106.983 344.463 108.775C344.967 106.414 345.911 106.603 347.516 106.414C344.672 105.731 343.255 105.163 341.001 103.865Z" fill="#F2BA87"/>
</g>
<g opacity="0.6">
<path fill-rule="evenodd" clip-rule="evenodd" d="M339.258 171.264C339.258 170.701 339.715 170.244 340.278 170.244H361.405C361.968 170.244 362.425 170.701 362.425 171.264V178.406C362.425 178.97 361.968 179.426 361.405 179.426H340.278C339.715 179.426 339.258 178.97 339.258 178.406V171.264ZM341.246 171.711C341.246 171.887 341.103 172.03 340.927 172.03C340.751 172.03 340.608 171.887 340.608 171.711C340.608 171.535 340.751 171.392 340.927 171.392C341.103 171.392 341.246 171.535 341.246 171.711ZM360.581 172.03C360.757 172.03 360.9 171.887 360.9 171.711C360.9 171.535 360.757 171.392 360.581 171.392C360.405 171.392 360.262 171.535 360.262 171.711C360.262 171.887 360.405 172.03 360.581 172.03Z" fill="#07523A"/>
<path fill-rule="evenodd" clip-rule="evenodd" d="M360.689 170.943H340.751C340.338 170.943 340.003 171.279 340.003 171.694V177.952C340.003 178.366 340.338 178.702 340.751 178.702H360.689C361.102 178.702 361.437 178.366 361.437 177.952V171.694C361.437 171.279 361.102 170.943 360.689 170.943ZM340.751 170.692C340.2 170.692 339.754 171.141 339.754 171.694V177.952C339.754 178.505 340.2 178.953 340.751 178.953H360.689C361.24 178.953 361.687 178.505 361.687 177.952V171.694C361.687 171.141 361.24 170.692 360.689 170.692H340.751Z" fill="#1C9A72"/>
<path d="M342.324 176.107V173.47H342.857V174.508H343.9V173.47H344.433V176.107H343.9V174.954H342.857V176.107H342.324ZM344.85 175.249L345.368 175.199C345.399 175.373 345.462 175.501 345.557 175.582C345.653 175.664 345.782 175.704 345.943 175.704C346.115 175.704 346.244 175.669 346.33 175.597C346.418 175.523 346.462 175.438 346.462 175.341C346.462 175.279 346.443 175.226 346.406 175.183C346.37 175.138 346.306 175.1 346.215 175.068C346.153 175.046 346.011 175.008 345.789 174.953C345.503 174.882 345.303 174.795 345.188 174.692C345.026 174.547 344.945 174.37 344.945 174.161C344.945 174.027 344.983 173.902 345.059 173.785C345.135 173.668 345.245 173.578 345.388 173.517C345.532 173.456 345.705 173.425 345.908 173.425C346.238 173.425 346.487 173.498 346.654 173.643C346.822 173.788 346.91 173.982 346.918 174.224L346.386 174.247C346.363 174.112 346.314 174.015 346.238 173.956C346.164 173.896 346.052 173.866 345.902 173.866C345.747 173.866 345.626 173.898 345.539 173.961C345.482 174.002 345.454 174.057 345.454 174.125C345.454 174.188 345.481 174.241 345.533 174.285C345.601 174.342 345.764 174.4 346.023 174.462C346.282 174.523 346.473 174.586 346.596 174.652C346.721 174.717 346.818 174.806 346.888 174.92C346.959 175.033 346.994 175.173 346.994 175.339C346.994 175.49 346.952 175.632 346.868 175.764C346.784 175.896 346.665 175.994 346.512 176.059C346.358 176.122 346.167 176.154 345.938 176.154C345.605 176.154 345.349 176.077 345.17 175.924C344.991 175.769 344.885 175.544 344.85 175.249ZM347.444 176.107V173.47H348.564C348.846 173.47 349.051 173.494 349.178 173.542C349.306 173.589 349.409 173.673 349.485 173.794C349.562 173.915 349.6 174.054 349.6 174.21C349.6 174.408 349.542 174.571 349.426 174.701C349.31 174.829 349.136 174.91 348.904 174.944C349.019 175.011 349.114 175.085 349.188 175.165C349.264 175.245 349.365 175.388 349.492 175.593L349.814 176.107H349.178L348.793 175.534C348.656 175.329 348.563 175.2 348.512 175.147C348.462 175.093 348.408 175.056 348.352 175.037C348.296 175.017 348.206 175.007 348.084 175.007H347.976V176.107H347.444ZM347.976 174.586H348.37C348.625 174.586 348.785 174.575 348.849 174.553C348.912 174.532 348.962 174.495 348.998 174.442C349.034 174.389 349.052 174.323 349.052 174.244C349.052 174.155 349.028 174.084 348.98 174.03C348.933 173.975 348.866 173.94 348.78 173.926C348.737 173.92 348.607 173.917 348.392 173.917H347.976V174.586ZM350.104 176.107V173.47H350.958C351.282 173.47 351.493 173.484 351.592 173.51C351.743 173.55 351.869 173.636 351.971 173.769C352.073 173.901 352.124 174.072 352.124 174.282C352.124 174.444 352.095 174.58 352.036 174.69C351.977 174.8 351.902 174.887 351.811 174.951C351.721 175.013 351.629 175.055 351.536 175.075C351.409 175.1 351.225 175.113 350.984 175.113H350.636V176.107H350.104ZM350.636 173.917V174.665H350.928C351.138 174.665 351.278 174.651 351.349 174.623C351.42 174.596 351.475 174.553 351.514 174.494C351.555 174.435 351.575 174.367 351.575 174.289C351.575 174.193 351.547 174.114 351.491 174.051C351.435 173.989 351.363 173.95 351.277 173.935C351.213 173.923 351.086 173.917 350.894 173.917H350.636ZM352.5 175.404V174.899H353.493V175.404H352.5ZM354.382 176.107V173.917H353.599V173.47H355.695V173.917H354.914V176.107H354.382ZM356.343 174.805C356.343 174.536 356.383 174.311 356.463 174.129C356.523 173.994 356.605 173.874 356.708 173.767C356.812 173.66 356.926 173.581 357.05 173.53C357.214 173.46 357.403 173.425 357.618 173.425C358.006 173.425 358.317 173.546 358.55 173.787C358.784 174.028 358.9 174.363 358.9 174.793C358.9 175.218 358.785 175.552 358.553 175.793C358.322 176.032 358.012 176.152 357.625 176.152C357.233 176.152 356.921 176.033 356.69 175.794C356.458 175.555 356.343 175.225 356.343 174.805ZM356.891 174.787C356.891 175.086 356.96 175.312 357.098 175.467C357.236 175.621 357.411 175.697 357.623 175.697C357.836 175.697 358.009 175.621 358.145 175.469C358.282 175.315 358.35 175.086 358.35 174.78C358.35 174.478 358.283 174.252 358.15 174.104C358.018 173.955 357.843 173.881 357.623 173.881C357.404 173.881 357.227 173.956 357.093 174.107C356.958 174.257 356.891 174.484 356.891 174.787Z" fill="#1C9A72"/>
<path d="M362.17 170.818L359.754 170.675C360.083 169.404 360.374 169.02 361.093 168.994C361.75 168.994 362.127 169.38 362.17 170.818Z" fill="#07523A"/>
<path d="M352.773 167.945C353.362 168.66 353.577 169.063 353.588 169.784C355.892 169.969 357.114 170.128 359.129 170.545C360.074 167.578 361.65 167.657 362.359 170.23L362.201 167.236L352.773 167.945Z" fill="#07523A"/>
<path d="M352.847 170.425H348.383C348.84 169.123 349.591 168.455 350.615 168.455C351.85 168.536 352.453 168.98 352.847 170.425Z" fill="#07523A"/>
<path fill-rule="evenodd" clip-rule="evenodd" d="M352.58 166.088L358.778 166.151C358.044 165.559 357.459 165.12 356.858 164.808C356.127 164.428 355.365 164.233 354.274 164.217L352.58 166.088ZM354.135 163.901L352.111 166.136C352.02 166.237 352.091 166.398 352.227 166.4L359.676 166.475C359.654 166.457 359.633 166.44 359.611 166.422C359.499 166.331 359.391 166.242 359.285 166.156C357.395 164.617 356.4 163.901 354.135 163.901Z" fill="#07523A"/>
<path fill-rule="evenodd" clip-rule="evenodd" d="M348.884 167.84C348.178 168.595 347.414 169.506 347.414 170.557C344.357 170.864 341.867 170.239 339.299 170.977C338.261 167.919 339.732 166.553 344.118 166.317L350.184 166.133C349.7 166.249 349.236 166.355 348.795 166.455C345.936 167.108 344.024 167.545 343.54 169.074L347.414 168.917L348.884 167.84ZM339.955 168.917H341.163C341.173 168.179 341.059 167.962 340.638 167.945C340.339 167.989 340.187 168.171 339.955 168.917Z" fill="#07523A"/>
<path d="M351.143 165.87L344.656 165.949C348.39 163.311 350.275 163.504 353.664 163.638C352.434 164.361 351.944 164.888 351.143 165.87Z" fill="#07523A"/>
<path d="M366.006 164.295C365.045 166.058 364.353 166.896 363.118 168.392C362.698 166.422 361.91 166.58 360.57 166.422C362.943 165.852 364.126 165.378 366.006 164.295Z" fill="#07523A"/>
<path d="M335.755 164.295C336.717 166.058 337.409 166.896 338.644 168.392C339.064 166.422 339.852 166.58 341.191 166.422C338.819 165.852 337.636 165.378 335.755 164.295Z" fill="#07523A"/>
</g>
<defs>
<linearGradient id="paint0_linear_2307_5840" x1="195.562" y1="107.248" x2="163.902" y2="127.365" gradientUnits="userSpaceOnUse">
<stop stop-color="#0D0A25"/>
<stop offset="1" stop-color="#17194F"/>
</linearGradient>
<clipPath id="clip0_2307_5840">
<rect width="25" height="19" fill="white" transform="matrix(-1 0 0 1 366 103)"/>
</clipPath>
<clipPath id="clip1_2307_5840">
<rect width="39" height="7" fill="white" transform="matrix(-1 0 0 1 380 103)"/>
</clipPath>
</defs>
</svg>
