<svg width="128" height="71" viewBox="0 0 128 71" fill="none" xmlns="http://www.w3.org/2000/svg">
<g clip-path="url(#clip0_2413_4781)">
<g filter="url(#filter0_d_2413_4781)">
<path fill-rule="evenodd" clip-rule="evenodd" d="M17.8828 30.5176C17.8828 28.2826 19.6947 26.4707 21.9297 26.4707H105.73C107.965 26.4707 109.777 28.2826 109.777 30.5176V58.8459C109.777 61.0809 107.965 62.8928 105.73 62.8928H21.9297C19.6947 62.8928 17.8828 61.0809 17.8828 58.8459V30.5176ZM25.773 32.2875C25.773 32.986 25.2068 33.5522 24.5084 33.5522C23.8099 33.5522 23.2437 32.986 23.2437 32.2875C23.2437 31.5891 23.8099 31.0229 24.5084 31.0229C25.2068 31.0229 25.773 31.5891 25.773 32.2875ZM102.468 33.5522C103.166 33.5522 103.733 32.986 103.733 32.2875C103.733 31.5891 103.166 31.0229 102.468 31.0229C101.77 31.0229 101.203 31.5891 101.203 32.2875C101.203 32.986 101.77 33.5522 102.468 33.5522Z" fill="white"/>
<path fill-rule="evenodd" clip-rule="evenodd" d="M102.893 29.239H23.8082C22.1693 29.239 20.8407 30.5726 20.8407 32.2177V57.0402C20.8407 58.6853 22.1693 60.0189 23.8082 60.0189H102.893C104.532 60.0189 105.861 58.6853 105.861 57.0402V32.2177C105.861 30.5726 104.532 29.239 102.893 29.239ZM23.8082 28.2461C21.623 28.2461 19.8516 30.0243 19.8516 32.2177V57.0402C19.8516 59.2336 21.623 61.0118 23.8082 61.0118H102.893C105.079 61.0118 106.85 59.2336 106.85 57.0402V32.2177C106.85 30.0243 105.079 28.2461 102.893 28.2461H23.8082Z" fill="#1E1826"/>
<path d="M25 50.8257V40.3658H27.112V44.4827H31.2502V40.3658H33.3622V50.8257H31.2502V46.2522H27.112V50.8257H25ZM35.0175 47.4223L37.0724 47.2225C37.1961 47.9122 37.4458 48.4188 37.8216 48.7423C38.2021 49.0657 38.7134 49.2275 39.3556 49.2275C40.0358 49.2275 40.5471 49.0848 40.8896 48.7994C41.2368 48.5092 41.4104 48.1715 41.4104 47.7862C41.4104 47.5389 41.3367 47.3296 41.1893 47.1583C41.0466 46.9823 40.7945 46.8301 40.433 46.7017C40.1856 46.6161 39.6219 46.4638 38.742 46.245C37.6099 45.9644 36.8155 45.6195 36.3589 45.2105C35.7167 44.6349 35.3957 43.9333 35.3957 43.1057C35.3957 42.5729 35.5455 42.0758 35.8452 41.6144C36.1496 41.1483 36.5848 40.7939 37.1509 40.5513C37.7217 40.3087 38.409 40.1875 39.2129 40.1875C40.5257 40.1875 41.5127 40.4752 42.1739 41.0508C42.8398 41.6263 43.1894 42.3945 43.2227 43.3554L41.1108 43.4481C41.0204 42.9106 40.8254 42.5253 40.5257 42.2923C40.2308 42.0544 39.7861 41.9355 39.1915 41.9355C38.5779 41.9355 38.0974 42.0616 37.7502 42.3137C37.5266 42.4754 37.4149 42.6918 37.4149 42.963C37.4149 43.2103 37.5195 43.422 37.7288 43.598C37.9952 43.8215 38.6421 44.0546 39.6695 44.2972C40.6969 44.5398 41.4556 44.7919 41.9456 45.0535C42.4403 45.3104 42.8255 45.6647 43.1014 46.1166C43.3821 46.5637 43.5224 47.1179 43.5224 47.7791C43.5224 48.3784 43.3559 48.9397 43.0229 49.4629C42.69 49.9861 42.2191 50.3762 41.6102 50.6331C41.0014 50.8852 40.2427 51.0112 39.3342 51.0112C38.0118 51.0112 36.9963 50.7068 36.2875 50.0979C35.5788 49.4843 35.1555 48.5924 35.0175 47.4223ZM45.3061 50.8257V40.3658H49.7512C50.869 40.3658 51.68 40.461 52.1843 40.6512C52.6932 40.8367 53.0999 41.1697 53.4043 41.6501C53.7088 42.1305 53.861 42.6799 53.861 43.2983C53.861 44.0831 53.6303 44.7324 53.1689 45.2461C52.7075 45.7551 52.0178 46.0762 51.0997 46.2094C51.5564 46.4757 51.9322 46.7683 52.2271 47.087C52.5267 47.4057 52.9287 47.9717 53.4329 48.7851L54.71 50.8257H52.1843L50.6574 48.5496C50.1151 47.7363 49.7441 47.2249 49.5443 47.0156C49.3445 46.8016 49.1329 46.6565 48.9093 46.5804C48.6857 46.4995 48.3314 46.4591 47.8462 46.4591H47.4181V50.8257H45.3061ZM47.4181 44.7895H48.9807C49.9938 44.7895 50.6265 44.7467 50.8786 44.6611C51.1307 44.5755 51.3281 44.428 51.4708 44.2187C51.6135 44.0094 51.6848 43.7478 51.6848 43.4339C51.6848 43.0819 51.5897 42.7989 51.3994 42.5848C51.2139 42.366 50.9499 42.2281 50.6074 42.171C50.4362 42.1472 49.9225 42.1353 49.0663 42.1353H47.4181V44.7895ZM55.8588 50.8257V40.3658H59.2479C60.5322 40.3658 61.3693 40.4181 61.7594 40.5228C62.3587 40.6798 62.8605 41.0222 63.2649 41.5502C63.6692 42.0735 63.8713 42.7513 63.8713 43.5837C63.8713 44.2258 63.7548 44.7657 63.5217 45.2033C63.2886 45.6409 62.9914 45.9858 62.6299 46.2379C62.2731 46.4853 61.9092 46.6494 61.5382 46.7302C61.034 46.8301 60.3039 46.8801 59.3478 46.8801H57.9707V50.8257H55.8588ZM57.9707 42.1353V45.1034H59.1266C59.959 45.1034 60.5155 45.0487 60.7962 44.9393C61.0768 44.8299 61.2956 44.6587 61.4526 44.4256C61.6143 44.1925 61.6952 43.9214 61.6952 43.6122C61.6952 43.2317 61.5834 42.9178 61.3598 42.6704C61.1363 42.4231 60.8532 42.2685 60.5108 42.2066C60.2587 42.1591 59.7521 42.1353 58.991 42.1353H57.9707ZM65.3626 48.0359V46.031H69.3011V48.0359H65.3626ZM84.8257 50.8257V42.1353H81.722V40.3658H90.0343V42.1353H86.9377V50.8257H84.8257ZM92.6046 45.66C92.6046 44.5945 92.7639 43.7002 93.0826 42.9772C93.3204 42.4445 93.6439 41.9664 94.053 41.5431C94.4668 41.1198 94.9187 40.8058 95.4086 40.6013C96.0603 40.3254 96.8118 40.1875 97.6633 40.1875C99.2044 40.1875 100.436 40.6655 101.359 41.6216C102.287 42.5777 102.751 43.9072 102.751 45.61C102.751 47.2986 102.291 48.621 101.373 49.5771C100.455 50.5284 99.2282 51.0041 97.6918 51.0041C96.1364 51.0041 94.8996 50.5308 93.9816 49.5842C93.0636 48.6329 92.6046 47.3248 92.6046 45.66ZM94.7807 45.5886C94.7807 46.773 95.0542 47.672 95.6013 48.2856C96.1483 48.8945 96.8427 49.1989 97.6847 49.1989C98.5266 49.1989 99.2163 48.8969 99.7538 48.2928C100.296 47.6839 100.567 46.773 100.567 45.5601C100.567 44.3614 100.303 43.4672 99.7752 42.8773C99.252 42.2875 98.5551 41.9926 97.6847 41.9926C96.8142 41.9926 96.1126 42.2923 95.5798 42.8916C95.0471 43.4862 94.7807 44.3852 94.7807 45.5886Z" fill="#1E1826"/>
<path d="M71 40.3652V50.8251H73.112V46.4585H73.5401C74.0253 46.4585 74.3796 46.4989 74.6032 46.5798C74.8268 46.6559 75.0384 46.801 75.2382 47.015C75.438 47.2243 75.809 47.7357 76.3513 48.549L77.8782 50.8251H80.4039L79.1268 48.7845C78.6226 47.9711 78.2206 47.4051 77.921 47.0864C77.6261 46.7677 77.2503 46.4751 76.7936 46.2088C77.7117 46.0756 78.4014 45.7545 78.8628 45.2455C79.3242 44.7318 79.5549 44.0825 79.5549 43.2977C79.5549 42.6793 79.4027 42.1299 79.0982 41.6495C78.7938 41.1691 78.3871 40.8361 77.8782 40.6506C77.3739 40.4604 76.5629 40.3652 75.4451 40.3652H71Z" fill="#1E1826"/>
<path d="M74.6759 44.789H73.1133V42.1348H74.7615C75.6177 42.1348 76.1314 42.1467 76.3026 42.1705C76.6451 42.2276 76.9091 42.3655 77.0946 42.5843C77.2849 42.7984 77.38 43.0814 77.38 43.4334C77.38 43.7473 77.3087 44.0089 77.166 44.2182C77.0233 44.4275 76.8259 44.575 76.5738 44.6606C76.3217 44.7462 75.689 44.789 74.6759 44.789Z" fill="white"/>
<path d="M108.791 28.7511L99.207 28.1825C100.511 23.1414 101.665 21.6192 104.52 21.5156C107.124 21.5156 108.622 23.0478 108.791 28.7511Z" fill="white"/>
<path d="M71.5039 17.3496C73.8395 20.1861 74.692 21.7813 74.7332 24.6415C83.8737 25.3751 88.7226 26.0084 96.7128 27.6624C100.463 15.8913 106.713 16.2038 109.526 26.4123L108.901 14.5371L71.5039 17.3496Z" fill="white"/>
<path d="M71.8103 27.1877H54.1016C55.9145 22.0232 58.8933 19.375 62.9559 19.375C67.8535 19.6945 70.2478 21.4584 71.8103 27.1877Z" fill="white"/>
<path fill-rule="evenodd" clip-rule="evenodd" d="M70.745 9.98084L95.3299 10.2292C92.4179 7.88361 90.0964 6.14143 87.7149 4.90266C84.8145 3.39396 81.7914 2.62023 77.4624 2.56043L70.745 9.98084ZM76.9113 1.30664L68.8855 10.1723C68.5238 10.5719 68.8036 11.2113 69.3425 11.2168L98.891 11.5152C98.8049 11.4449 98.7194 11.375 98.6343 11.3055C98.1909 10.9432 97.7602 10.5912 97.3406 10.2495C89.8445 4.14456 85.8954 1.30665 76.9113 1.30664Z" fill="white"/>
<path fill-rule="evenodd" clip-rule="evenodd" d="M56.0817 16.9331C53.2807 19.9303 50.2478 23.5436 50.2478 27.7103C38.1244 28.9271 28.2478 26.4483 18.0595 29.377C13.9443 17.2461 19.7788 11.8288 37.1754 10.8913L61.2381 10.1621C59.3163 10.6217 57.477 11.0417 55.7272 11.4414C44.3876 14.031 36.8038 15.763 34.8833 21.8291L50.2478 21.2041L56.0817 16.9331ZM20.6638 21.2041H25.4556C25.493 18.2778 25.0402 17.4167 23.3722 17.3498C22.1858 17.5251 21.5814 18.2474 20.6638 21.2041Z" fill="white"/>
<path d="M65.0423 9.11911L39.3125 9.43162C54.1212 -1.03307 61.6 -0.266526 75.0425 0.264727C70.1637 3.13414 68.221 5.22246 65.0423 9.11911Z" fill="white"/>
<path d="M124 2.86914C120.184 9.86113 117.44 13.1883 112.541 19.1196C110.874 11.3069 107.749 11.9319 102.438 11.3069C111.849 9.0451 116.541 7.16504 124 2.86914Z" fill="#30BE9F"/>
<path d="M4 2.86914C7.81518 9.86113 10.56 13.1883 15.4586 19.1196C17.1253 11.3069 20.2504 11.9319 25.563 11.3069C16.1516 9.0451 11.4587 7.16504 4 2.86914Z" fill="#30BE9F"/>
</g>
</g>
<defs>
<filter id="filter0_d_2413_4781" x="0" y="0" width="128" height="70.8926" filterUnits="userSpaceOnUse" color-interpolation-filters="sRGB">
<feFlood flood-opacity="0" result="BackgroundImageFix"/>
<feColorMatrix in="SourceAlpha" type="matrix" values="0 0 0 0 0 0 0 0 0 0 0 0 0 0 0 0 0 0 127 0" result="hardAlpha"/>
<feOffset dy="4"/>
<feGaussianBlur stdDeviation="2"/>
<feComposite in2="hardAlpha" operator="out"/>
<feColorMatrix type="matrix" values="0 0 0 0 0 0 0 0 0 0 0 0 0 0 0 0 0 0 0.25 0"/>
<feBlend mode="normal" in2="BackgroundImageFix" result="effect1_dropShadow_2413_4781"/>
<feBlend mode="normal" in="SourceGraphic" in2="effect1_dropShadow_2413_4781" result="shape"/>
</filter>
<clipPath id="clip0_2413_4781">
<rect width="128" height="71" fill="white"/>
</clipPath>
</defs>
</svg>
