<svg width="41" height="41" viewBox="0 0 41 41" fill="none" xmlns="http://www.w3.org/2000/svg">
<g clip-path="url(#clip0_2163_3986)">
<g clip-path="url(#clip1_2163_3986)">
<path d="M40.7318 0.363281H0.591797V40.5033H40.7318V0.363281Z" fill="#F7F7F7"/>
<path opacity="0.35" d="M28.0776 28.905H13.2481C11.4929 28.905 10.0703 27.4825 10.0703 25.7273V15.1348C10.0703 13.3796 11.4929 11.957 13.2481 11.957H28.0776C29.8327 11.957 31.2553 13.3796 31.2553 15.1348V25.7273C31.2553 27.4825 29.8327 28.905 28.0776 28.905Z" fill="#30BE9F"/>
<path d="M18.4829 20.1821L10.0703 15.1348C10.0703 13.3796 11.4929 11.957 13.2481 11.957H28.0776C29.8327 11.957 31.2553 13.3796 31.2553 15.1348L22.8427 20.1821C21.5007 20.9871 19.8249 20.9871 18.4829 20.1821Z" fill="#30BE9F"/>
</g>
</g>
<defs>
<clipPath id="clip0_2163_3986">
<rect width="40.14" height="40.14" fill="white" transform="translate(0.591797 0.363281)"/>
</clipPath>
<clipPath id="clip1_2163_3986">
<rect width="40.14" height="40.14" fill="white" transform="translate(0.591797 0.363281)"/>
</clipPath>
</defs>
</svg>
