<svg width="17" height="17" viewBox="0 0 17 17" fill="none" xmlns="http://www.w3.org/2000/svg">
<g clip-path="url(#clip0_2163_3878)">
<path d="M9.208 0.709465C9.208 0.521603 9.28263 0.341435 9.41546 0.208597C9.5483 0.075759 9.72847 0.00113119 9.91633 0.00113119C11.7943 0.00319357 13.5948 0.750134 14.9227 2.07807C16.2507 3.40601 16.9976 5.20648 16.9997 7.08447C16.9997 7.27233 16.925 7.45249 16.7922 7.58533C16.6594 7.71817 16.4792 7.7928 16.2913 7.7928C16.1035 7.7928 15.9233 7.71817 15.7905 7.58533C15.6576 7.45249 15.583 7.27233 15.583 7.08447C15.5813 5.58209 14.9837 4.14173 13.9214 3.07939C12.8591 2.01705 11.4187 1.41949 9.91633 1.4178C9.72847 1.4178 9.5483 1.34317 9.41546 1.21033C9.28263 1.07749 9.208 0.897326 9.208 0.709465ZM9.91633 4.25113C10.6678 4.25113 11.3884 4.54964 11.9198 5.081C12.4512 5.61235 12.7497 6.33302 12.7497 7.08447C12.7497 7.27233 12.8243 7.45249 12.9571 7.58533C13.09 7.71817 13.2701 7.7928 13.458 7.7928C13.6459 7.7928 13.826 7.71817 13.9589 7.58533C14.0917 7.45249 14.1663 7.27233 14.1663 7.08447C14.1652 5.95764 13.7171 4.87729 12.9203 4.0805C12.1235 3.28372 11.0432 2.83559 9.91633 2.83446C9.72847 2.83446 9.5483 2.90909 9.41546 3.04193C9.28263 3.17477 9.208 3.35494 9.208 3.5428C9.208 3.73066 9.28263 3.91083 9.41546 4.04367C9.5483 4.1765 9.72847 4.25113 9.91633 4.25113ZM16.3572 11.8579C16.7677 12.2695 16.9982 12.8271 16.9982 13.4085C16.9982 13.9898 16.7677 14.5474 16.3572 14.959L15.7126 15.702C9.91137 21.2561 -4.20571 7.14255 1.26262 1.32288L2.07721 0.614548C2.48929 0.215528 3.04191 -0.00520905 3.6155 9.33651e-05C4.18909 0.00539578 4.73753 0.236311 5.14216 0.642881C5.16412 0.66484 6.47666 2.3698 6.47666 2.3698C6.86613 2.77895 7.08293 3.32246 7.08201 3.88733C7.08108 4.45221 6.8625 4.995 6.47171 5.40288L5.65146 6.43422C6.10539 7.53717 6.77279 8.53956 7.61532 9.38378C8.45784 10.228 9.45888 10.8974 10.5609 11.3536L11.5986 10.5284C12.0066 10.1379 12.5493 9.91957 13.114 9.91877C13.6787 9.91798 14.222 10.1348 14.631 10.5241C14.631 10.5241 16.3352 11.836 16.3572 11.8579ZM15.3825 12.8878C15.3825 12.8878 13.6875 11.5838 13.6655 11.5618C13.5196 11.4171 13.3224 11.336 13.1169 11.336C12.9114 11.336 12.7143 11.4171 12.5683 11.5618C12.5492 11.5817 11.1205 12.72 11.1205 12.72C11.0242 12.7966 10.9096 12.8468 10.788 12.8657C10.6664 12.8846 10.542 12.8715 10.427 12.8276C8.99937 12.2961 7.7026 11.4639 6.62459 10.3875C5.54658 9.31105 4.71249 8.01552 4.17883 6.58863C4.13151 6.47208 4.11609 6.34503 4.13414 6.22054C4.15219 6.09605 4.20307 5.97861 4.28154 5.8803C4.28154 5.8803 5.41983 4.45088 5.43896 4.43246C5.58365 4.28654 5.66483 4.08936 5.66483 3.88386C5.66483 3.67836 5.58365 3.48118 5.43896 3.33526C5.417 3.31401 4.11296 1.61755 4.11296 1.61755C3.96484 1.48474 3.77154 1.41362 3.57267 1.41875C3.3738 1.42389 3.18443 1.5049 3.04337 1.64517L2.22879 2.35351C-1.76763 7.15884 10.466 18.7139 14.677 14.7345L15.3223 13.9907C15.4735 13.8506 15.5644 13.6573 15.5756 13.4515C15.5868 13.2457 15.5176 13.0435 15.3825 12.8878Z" fill="#30BE9F"/>
</g>
<defs>
<clipPath id="clip0_2163_3878">
<rect width="17" height="17" fill="white"/>
</clipPath>
</defs>
</svg>
