<svg width="17" height="17" viewBox="0 0 17 17" fill="none" xmlns="http://www.w3.org/2000/svg">
<g clip-path="url(#clip0_2163_3785)">
<path d="M14.875 2.83724H12.75V1.42057C12.75 0.639281 12.1146 0.00390625 11.3333 0.00390625H5.66667C4.88538 0.00390625 4.25 0.639281 4.25 1.42057V2.83724H2.125C0.953417 2.83724 0 3.79066 0 4.96224V16.2956C0 16.6868 0.317132 17.0039 0.708333 17.0039H16.2917C16.6829 17.0039 17 16.6868 17 16.2956V4.96224C17 3.79066 16.0466 2.83724 14.875 2.83724ZM5.66667 1.42057H11.3333V2.83724H5.66667V1.42057ZM15.5833 15.5872H12.75V5.67057H11.3333V15.5872H5.66667V5.67057H4.25V15.5872H1.41667V4.96224C1.41667 4.57124 1.73471 4.25391 2.125 4.25391H14.875C15.266 4.25391 15.5833 4.57124 15.5833 4.96224V15.5872Z" fill="#30BE9F"/>
</g>
<defs>
<clipPath id="clip0_2163_3785">
<rect width="17" height="17" fill="white"/>
</clipPath>
</defs>
</svg>
