<svg width="17" height="17" viewBox="0 0 17 17" fill="none" xmlns="http://www.w3.org/2000/svg">
<g clip-path="url(#clip0_2163_3781)">
<path d="M11.3326 10.9753C11.1995 10.9753 11.0642 10.9377 10.9445 10.8591L8.11113 8.99759C7.91208 8.86584 7.79167 8.64414 7.79167 8.40543V4.95443C7.79167 4.56272 8.10829 4.24609 8.5 4.24609C8.89171 4.24609 9.20833 4.56272 9.20833 4.95443V8.02363L11.7222 9.67476C12.0495 9.89009 12.1401 10.3293 11.9255 10.6558C11.7895 10.8633 11.5628 10.9753 11.3326 10.9753ZM9.00575 15.5617C8.83858 15.5738 8.67 15.5794 8.5 15.5794C4.59425 15.5794 1.41667 12.4018 1.41667 8.49609C1.41667 4.59034 4.59425 1.41276 8.5 1.41276C10.732 1.41276 12.8293 2.48376 14.1582 4.24609H12.0417C11.65 4.24609 11.3333 4.56272 11.3333 4.95443C11.3333 5.34614 11.65 5.66276 12.0417 5.66276H14.875C15.6563 5.66276 16.2917 5.02739 16.2917 4.24609V1.41276C16.2917 1.02105 15.975 0.704427 15.5833 0.704427C15.1916 0.704427 14.875 1.02105 14.875 1.41276V2.90309C13.2763 1.08905 10.96 -0.00390625 8.5 -0.00390625C3.81296 -0.00390625 0 3.80905 0 8.49609C0 13.1831 3.81296 16.9961 8.5 16.9961C8.704 16.9961 8.90588 16.9883 9.10633 16.9741C9.49663 16.9465 9.79058 16.6072 9.76225 16.2176C9.73462 15.8281 9.39958 15.527 9.00575 15.5617ZM16.2917 7.78776C15.9 7.78776 15.5833 8.10439 15.5833 8.49609C15.5833 8.81839 15.5614 9.1428 15.5182 9.45943C15.4658 9.84759 15.7378 10.2046 16.1245 10.257C16.1571 10.2613 16.189 10.2634 16.2208 10.2634C16.57 10.2634 16.8739 10.0056 16.9221 9.65068C16.9731 9.27101 16.9993 8.88214 16.9993 8.49609C16.9993 8.10439 16.6834 7.78776 16.2917 7.78776ZM15.6804 11.6099C15.3375 11.4201 14.9062 11.5476 14.7192 11.8904C14.5655 12.1709 14.3905 12.4443 14.1985 12.7036C13.9662 13.0181 14.0335 13.4615 14.3473 13.6946C14.4748 13.7881 14.6221 13.8327 14.768 13.8327C14.9855 13.8327 15.1994 13.7328 15.339 13.5458C15.5678 13.2348 15.7781 12.9069 15.9623 12.5704C16.1507 12.2276 16.0246 11.7969 15.6818 11.6092L15.6804 11.6099ZM12.3293 14.4574C12.058 14.6317 11.7746 14.7882 11.4856 14.9221C11.1308 15.0871 10.9763 15.5079 11.1414 15.8628C11.2618 16.1213 11.5168 16.2729 11.7845 16.2729C11.8844 16.2729 11.9857 16.2523 12.082 16.207C12.4298 16.0448 12.7713 15.8578 13.0964 15.6481C13.4258 15.4363 13.5207 14.9986 13.3089 14.6692C13.0971 14.3413 12.6586 14.2463 12.33 14.4567L12.3293 14.4574Z" fill="#30BE9F"/>
</g>
<defs>
<clipPath id="clip0_2163_3781">
<rect width="17" height="17" fill="white"/>
</clipPath>
</defs>
</svg>
