<svg width="12" height="10" viewBox="0 0 12 10" fill="none" xmlns="http://www.w3.org/2000/svg">
<path d="M7.41121 0.527983C7.08645 0.8532 7.0866 1.38004 7.41154 1.70507L9.85 4.14419L0.831496 4.16403C0.371977 4.16504 -2.39015e-07 4.53784 -2.18928e-07 4.99736C-1.9878e-07 5.45831 0.374214 5.8317 0.835165 5.83069L9.83916 5.81086L7.41125 8.23877C7.08606 8.56397 7.08596 9.09118 7.41104 9.41648C7.73628 9.74195 8.26381 9.74205 8.58917 9.41669L11.2658 6.74003C11.498 6.50787 11.6822 6.23226 11.8079 5.92891C11.9335 5.62557 11.9982 5.30045 11.9982 4.97211C11.9982 4.64377 11.9335 4.31864 11.8079 4.0153C11.6822 3.71196 11.498 3.43634 11.2658 3.20419L8.58921 0.527567C8.26387 0.202225 7.73632 0.202411 7.41121 0.527983Z" fill="white"/>
</svg>
